<svg width="407" height="218" viewBox="0 0 407 218" fill="none" xmlns="http://www.w3.org/2000/svg">
<path opacity="0.7" d="M11.206 3.966H4.726L4.744 15H2.962V2.4H11.224L11.206 3.966ZM14.4768 15.108C13.5288 15.108 12.6768 14.898 11.9208 14.478C11.1648 14.058 10.5708 13.482 10.1388 12.75C9.7188 12.006 9.5088 11.166 9.5088 10.23C9.5088 9.294 9.7188 8.46 10.1388 7.728C10.5708 6.984 11.1648 6.408 11.9208 6C12.6768 5.58 13.5288 5.37 14.4768 5.37C15.4248 5.37 16.2708 5.58 17.0148 6C17.7708 6.408 18.3588 6.984 18.7788 7.728C19.2108 8.46 19.4268 9.294 19.4268 10.23C19.4268 11.166 19.2108 12.006 18.7788 12.75C18.3588 13.482 17.7708 14.058 17.0148 14.478C16.2708 14.898 15.4248 15.108 14.4768 15.108ZM14.4768 13.596C15.0888 13.596 15.6348 13.458 16.1148 13.182C16.6068 12.894 16.9908 12.498 17.2668 11.994C17.5428 11.478 17.6808 10.89 17.6808 10.23C17.6808 9.57 17.5428 8.988 17.2668 8.484C16.9908 7.968 16.6068 7.572 16.1148 7.296C15.6348 7.02 15.0888 6.882 14.4768 6.882C13.8648 6.882 13.3128 7.02 12.8208 7.296C12.3408 7.572 11.9568 7.968 11.6688 8.484C11.3928 8.988 11.2548 9.57 11.2548 10.23C11.2548 10.89 11.3928 11.478 11.6688 11.994C11.9568 12.498 12.3408 12.894 12.8208 13.182C13.3128 13.458 13.8648 13.596 14.4768 13.596ZM26.08 15.108C25.108 15.108 24.238 14.898 23.47 14.478C22.714 14.058 22.12 13.482 21.688 12.75C21.256 12.006 21.04 11.166 21.04 10.23C21.04 9.294 21.256 8.46 21.688 7.728C22.12 6.984 22.714 6.408 23.47 6C24.238 5.58 25.108 5.37 26.08 5.37C26.944 5.37 27.712 5.544 28.384 5.892C29.068 6.24 29.596 6.744 29.968 7.404L28.654 8.25C28.354 7.794 27.982 7.452 27.538 7.224C27.094 6.996 26.602 6.882 26.062 6.882C25.438 6.882 24.874 7.02 24.37 7.296C23.878 7.572 23.488 7.968 23.2 8.484C22.924 8.988 22.786 9.57 22.786 10.23C22.786 10.902 22.924 11.496 23.2 12.012C23.488 12.516 23.878 12.906 24.37 13.182C24.874 13.458 25.438 13.596 26.062 13.596C26.602 13.596 27.094 13.482 27.538 13.254C27.982 13.026 28.354 12.684 28.654 12.228L29.968 13.056C29.596 13.716 29.068 14.226 28.384 14.586C27.712 14.934 26.944 15.108 26.08 15.108ZM35.9133 10.968H33.9333V15H32.2053V5.46H33.9333V9.492H35.9493L39.0453 5.46H40.8993L37.2813 10.05L41.1513 15H39.1173L35.9133 10.968ZM46.7327 15.108C45.7847 15.108 44.9327 14.898 44.1767 14.478C43.4207 14.058 42.8267 13.482 42.3947 12.75C41.9747 12.006 41.7647 11.166 41.7647 10.23C41.7647 9.294 41.9747 8.46 42.3947 7.728C42.8267 6.984 43.4207 6.408 44.1767 6C44.9327 5.58 45.7847 5.37 46.7327 5.37C47.6807 5.37 48.5267 5.58 49.2707 6C50.0267 6.408 50.6147 6.984 51.0347 7.728C51.4667 8.46 51.6827 9.294 51.6827 10.23C51.6827 11.166 51.4667 12.006 51.0347 12.75C50.6147 13.482 50.0267 14.058 49.2707 14.478C48.5267 14.898 47.6807 15.108 46.7327 15.108ZM46.7327 13.596C47.3447 13.596 47.8907 13.458 48.3707 13.182C48.8627 12.894 49.2467 12.498 49.5227 11.994C49.7987 11.478 49.9367 10.89 49.9367 10.23C49.9367 9.57 49.7987 8.988 49.5227 8.484C49.2467 7.968 48.8627 7.572 48.3707 7.296C47.8907 7.02 47.3447 6.882 46.7327 6.882C46.1207 6.882 45.5687 7.02 45.0767 7.296C44.5967 7.572 44.2127 7.968 43.9247 8.484C43.6487 8.988 43.5107 9.57 43.5107 10.23C43.5107 10.89 43.6487 11.478 43.9247 11.994C44.2127 12.498 44.5967 12.894 45.0767 13.182C45.5687 13.458 46.1207 13.596 46.7327 13.596ZM59.2359 5.37C60.1599 5.37 60.9879 5.574 61.7199 5.982C62.4519 6.39 63.0219 6.96 63.4299 7.692C63.8499 8.424 64.0599 9.27 64.0599 10.23C64.0599 11.19 63.8499 12.042 63.4299 12.786C63.0219 13.518 62.4519 14.088 61.7199 14.496C60.9879 14.904 60.1599 15.108 59.2359 15.108C58.5519 15.108 57.9219 14.976 57.3459 14.712C56.7819 14.448 56.3019 14.064 55.9059 13.56V18.492H54.1779V5.46H55.8339V6.972C56.2179 6.444 56.7039 6.048 57.2919 5.784C57.8799 5.508 58.5279 5.37 59.2359 5.37ZM59.0919 13.596C59.7039 13.596 60.2499 13.458 60.7299 13.182C61.2219 12.894 61.6059 12.498 61.8819 11.994C62.1699 11.478 62.3139 10.89 62.3139 10.23C62.3139 9.57 62.1699 8.988 61.8819 8.484C61.6059 7.968 61.2219 7.572 60.7299 7.296C60.2499 7.02 59.7039 6.882 59.0919 6.882C58.4919 6.882 57.9459 7.026 57.4539 7.314C56.9739 7.59 56.5899 7.98 56.3019 8.484C56.0259 8.988 55.8879 9.57 55.8879 10.23C55.8879 10.89 56.0259 11.478 56.3019 11.994C56.5779 12.498 56.9619 12.894 57.4539 13.182C57.9459 13.458 58.4919 13.596 59.0919 13.596ZM75.4085 5.46V15H73.6805V6.972H68.2985V15H66.5705V5.46H75.4085ZM82.8381 15.108C81.8901 15.108 81.0381 14.898 80.2821 14.478C79.5261 14.058 78.9321 13.482 78.5001 12.75C78.0801 12.006 77.8701 11.166 77.8701 10.23C77.8701 9.294 78.0801 8.46 78.5001 7.728C78.9321 6.984 79.5261 6.408 80.2821 6C81.0381 5.58 81.8901 5.37 82.8381 5.37C83.7861 5.37 84.6321 5.58 85.3761 6C86.1321 6.408 86.7201 6.984 87.1401 7.728C87.5721 8.46 87.7881 9.294 87.7881 10.23C87.7881 11.166 87.5721 12.006 87.1401 12.75C86.7201 13.482 86.1321 14.058 85.3761 14.478C84.6321 14.898 83.7861 15.108 82.8381 15.108ZM82.8381 13.596C83.4501 13.596 83.9961 13.458 84.4761 13.182C84.9681 12.894 85.3521 12.498 85.6281 11.994C85.9041 11.478 86.0421 10.89 86.0421 10.23C86.0421 9.57 85.9041 8.988 85.6281 8.484C85.3521 7.968 84.9681 7.572 84.4761 7.296C83.9961 7.02 83.4501 6.882 82.8381 6.882C82.2261 6.882 81.6741 7.02 81.1821 7.296C80.7021 7.572 80.3181 7.968 80.0301 8.484C79.7541 8.988 79.6161 9.57 79.6161 10.23C79.6161 10.89 79.7541 11.478 80.0301 11.994C80.3181 12.498 80.7021 12.894 81.1821 13.182C81.6741 13.458 82.2261 13.596 82.8381 13.596ZM95.3414 5.37C96.2654 5.37 97.0934 5.574 97.8254 5.982C98.5574 6.39 99.1274 6.96 99.5354 7.692C99.9554 8.424 100.165 9.27 100.165 10.23C100.165 11.19 99.9554 12.042 99.5354 12.786C99.1274 13.518 98.5574 14.088 97.8254 14.496C97.0934 14.904 96.2654 15.108 95.3414 15.108C94.6574 15.108 94.0274 14.976 93.4514 14.712C92.8874 14.448 92.4074 14.064 92.0114 13.56V18.492H90.2834V5.46H91.9394V6.972C92.3234 6.444 92.8094 6.048 93.3974 5.784C93.9854 5.508 94.6334 5.37 95.3414 5.37ZM95.1974 13.596C95.8094 13.596 96.3554 13.458 96.8354 13.182C97.3274 12.894 97.7114 12.498 97.9874 11.994C98.2754 11.478 98.4194 10.89 98.4194 10.23C98.4194 9.57 98.2754 8.988 97.9874 8.484C97.7114 7.968 97.3274 7.572 96.8354 7.296C96.3554 7.02 95.8094 6.882 95.1974 6.882C94.5974 6.882 94.0514 7.026 93.5594 7.314C93.0794 7.59 92.6954 7.98 92.4074 8.484C92.1314 8.988 91.9934 9.57 91.9934 10.23C91.9934 10.89 92.1314 11.478 92.4074 11.994C92.6834 12.498 93.0674 12.894 93.5594 13.182C94.0514 13.458 94.5974 13.596 95.1974 13.596ZM105.99 5.37C107.31 5.37 108.318 5.694 109.014 6.342C109.722 6.99 110.076 7.956 110.076 9.24V15H108.438V13.74C108.15 14.184 107.736 14.526 107.196 14.766C106.668 14.994 106.038 15.108 105.306 15.108C104.238 15.108 103.38 14.85 102.732 14.334C102.096 13.818 101.778 13.14 101.778 12.3C101.778 11.46 102.084 10.788 102.696 10.284C103.308 9.768 104.28 9.51 105.612 9.51H108.348V9.168C108.348 8.424 108.132 7.854 107.7 7.458C107.268 7.062 106.632 6.864 105.792 6.864C105.228 6.864 104.676 6.96 104.136 7.152C103.596 7.332 103.14 7.578 102.768 7.89L102.048 6.594C102.54 6.198 103.128 5.898 103.812 5.694C104.496 5.478 105.222 5.37 105.99 5.37ZM105.594 13.776C106.254 13.776 106.824 13.632 107.304 13.344C107.784 13.044 108.132 12.624 108.348 12.084V10.752H105.684C104.22 10.752 103.488 11.244 103.488 12.228C103.488 12.708 103.674 13.086 104.046 13.362C104.418 13.638 104.934 13.776 105.594 13.776ZM123.376 13.488V17.286H121.738V15H113.188V5.46H114.916V13.488H120.136V5.46H121.864V13.488H123.376ZM125.615 5.46H127.343V12.408L133.193 5.46H134.759V15H133.031V8.052L127.199 15H125.615V5.46ZM138.113 5.46H139.841V12.408L145.691 5.46H147.257V15H145.529V8.052L139.697 15H138.113V5.46ZM155.445 5.46H157.173V12.408L163.023 5.46H164.589V15H162.861V8.052L157.029 15H155.445V5.46ZM176.486 10.968H174.506V15H172.778V5.46H174.506V9.492H176.522L179.618 5.46H181.472L177.854 10.05L181.724 15H179.69L176.486 10.968ZM188.593 5.37C189.517 5.37 190.345 5.574 191.077 5.982C191.809 6.39 192.379 6.96 192.787 7.692C193.207 8.424 193.417 9.27 193.417 10.23C193.417 11.19 193.207 12.042 192.787 12.786C192.379 13.518 191.809 14.088 191.077 14.496C190.345 14.904 189.517 15.108 188.593 15.108C187.909 15.108 187.279 14.976 186.703 14.712C186.139 14.448 185.659 14.064 185.263 13.56V18.492H183.535V5.46H185.191V6.972C185.575 6.444 186.061 6.048 186.649 5.784C187.237 5.508 187.885 5.37 188.593 5.37ZM188.449 13.596C189.061 13.596 189.607 13.458 190.087 13.182C190.579 12.894 190.963 12.498 191.239 11.994C191.527 11.478 191.671 10.89 191.671 10.23C191.671 9.57 191.527 8.988 191.239 8.484C190.963 7.968 190.579 7.572 190.087 7.296C189.607 7.02 189.061 6.882 188.449 6.882C187.849 6.882 187.303 7.026 186.811 7.314C186.331 7.59 185.947 7.98 185.659 8.484C185.383 8.988 185.245 9.57 185.245 10.23C185.245 10.89 185.383 11.478 185.659 11.994C185.935 12.498 186.319 12.894 186.811 13.182C187.303 13.458 187.849 13.596 188.449 13.596ZM204.178 5.46L199.552 15.954C199.144 16.926 198.664 17.61 198.112 18.006C197.572 18.402 196.918 18.6 196.15 18.6C195.682 18.6 195.226 18.522 194.782 18.366C194.35 18.222 193.99 18.006 193.702 17.718L194.44 16.422C194.932 16.89 195.502 17.124 196.15 17.124C196.57 17.124 196.918 17.01 197.194 16.782C197.482 16.566 197.74 16.188 197.968 15.648L198.274 14.982L194.062 5.46H195.862L199.192 13.092L202.486 5.46H204.178ZM214.785 5.46V15H213.057V6.972H207.675V15H205.947V5.46H214.785ZM218.129 5.46H219.857V9.51H225.293V5.46H227.021V15H225.293V11.004H219.857V15H218.129V5.46ZM234.683 8.7C235.883 8.712 236.801 8.988 237.437 9.528C238.073 10.068 238.391 10.83 238.391 11.814C238.391 12.846 238.043 13.644 237.347 14.208C236.663 14.76 235.679 15.03 234.395 15.018L230.381 15V5.46H232.109V8.682L234.683 8.7ZM239.813 5.46H241.541V15H239.813V5.46ZM234.269 13.704C235.049 13.716 235.637 13.56 236.033 13.236C236.441 12.912 236.645 12.432 236.645 11.796C236.645 11.172 236.447 10.716 236.051 10.428C235.655 10.14 235.061 9.99 234.269 9.978L232.109 9.942V13.686L234.269 13.704ZM244.901 5.46H246.629V12.408L252.479 5.46H254.045V15H252.317V8.052L246.485 15H244.901V5.46ZM249.365 4.218C248.477 4.218 247.787 4.008 247.295 3.588C246.803 3.156 246.551 2.538 246.539 1.734H247.709C247.721 2.178 247.871 2.538 248.159 2.814C248.459 3.078 248.855 3.21 249.347 3.21C249.839 3.21 250.235 3.078 250.535 2.814C250.835 2.538 250.991 2.178 251.003 1.734H252.209C252.197 2.538 251.939 3.156 251.435 3.588C250.931 4.008 250.241 4.218 249.365 4.218ZM267.093 5.784C267.981 5.784 268.773 5.982 269.469 6.378C270.165 6.774 270.705 7.326 271.089 8.034C271.485 8.73 271.683 9.528 271.683 10.428C271.683 11.352 271.473 12.174 271.053 12.894C270.645 13.602 270.063 14.154 269.307 14.55C268.563 14.946 267.711 15.144 266.751 15.144C265.131 15.144 263.877 14.592 262.989 13.488C262.113 12.372 261.675 10.806 261.675 8.79C261.675 6.834 262.077 5.304 262.881 4.2C263.685 3.084 264.915 2.346 266.571 1.986L270.927 1.014L271.179 2.598L267.165 3.462C265.917 3.738 264.987 4.206 264.375 4.866C263.763 5.526 263.415 6.474 263.331 7.71C263.739 7.098 264.267 6.624 264.915 6.288C265.563 5.952 266.289 5.784 267.093 5.784ZM266.787 13.704C267.399 13.704 267.939 13.566 268.407 13.29C268.887 13.014 269.259 12.636 269.523 12.156C269.787 11.664 269.919 11.106 269.919 10.482C269.919 9.534 269.631 8.772 269.055 8.196C268.479 7.62 267.723 7.332 266.787 7.332C265.851 7.332 265.089 7.62 264.501 8.196C263.925 8.772 263.637 9.534 263.637 10.482C263.637 11.106 263.769 11.664 264.033 12.156C264.309 12.636 264.687 13.014 265.167 13.29C265.647 13.566 266.187 13.704 266.787 13.704ZM274.151 5.46H275.879V12.408L281.729 5.46H283.295V15H281.567V8.052L275.735 15H274.151V5.46ZM291.656 10.032C292.292 10.2 292.784 10.47 293.132 10.842C293.48 11.214 293.654 11.676 293.654 12.228C293.654 12.792 293.462 13.296 293.078 13.74C292.694 14.172 292.16 14.514 291.476 14.766C290.804 15.006 290.048 15.126 289.208 15.126C288.5 15.126 287.804 15.036 287.12 14.856C286.448 14.664 285.848 14.394 285.32 14.046L285.842 12.732C286.298 13.02 286.82 13.248 287.408 13.416C287.996 13.572 288.59 13.65 289.19 13.65C290.006 13.65 290.654 13.512 291.134 13.236C291.626 12.948 291.872 12.564 291.872 12.084C291.872 11.64 291.674 11.298 291.278 11.058C290.894 10.818 290.348 10.698 289.64 10.698H287.894V9.456H289.514C290.162 9.456 290.672 9.342 291.044 9.114C291.416 8.886 291.602 8.574 291.602 8.178C291.602 7.746 291.38 7.41 290.936 7.17C290.504 6.93 289.916 6.81 289.172 6.81C288.224 6.81 287.222 7.056 286.166 7.548L285.698 6.216C286.862 5.628 288.08 5.334 289.352 5.334C290.12 5.334 290.81 5.442 291.422 5.658C292.034 5.874 292.514 6.18 292.862 6.576C293.21 6.972 293.384 7.422 293.384 7.926C293.384 8.394 293.228 8.814 292.916 9.186C292.604 9.558 292.184 9.84 291.656 10.032ZM296.281 5.46H298.009V9.51H303.445V5.46H305.173V15H303.445V11.004H298.009V15H296.281V5.46ZM317.155 10.284C317.155 10.416 317.143 10.59 317.119 10.806H309.379C309.487 11.646 309.853 12.324 310.477 12.84C311.113 13.344 311.899 13.596 312.835 13.596C313.975 13.596 314.893 13.212 315.589 12.444L316.543 13.56C316.111 14.064 315.571 14.448 314.923 14.712C314.287 14.976 313.573 15.108 312.781 15.108C311.773 15.108 310.879 14.904 310.099 14.496C309.319 14.076 308.713 13.494 308.281 12.75C307.861 12.006 307.651 11.166 307.651 10.23C307.651 9.306 307.855 8.472 308.263 7.728C308.683 6.984 309.253 6.408 309.973 6C310.705 5.58 311.527 5.37 312.439 5.37C313.351 5.37 314.161 5.58 314.869 6C315.589 6.408 316.147 6.984 316.543 7.728C316.951 8.472 317.155 9.324 317.155 10.284ZM312.439 6.828C311.611 6.828 310.915 7.08 310.351 7.584C309.799 8.088 309.475 8.748 309.379 9.564H315.499C315.403 8.76 315.073 8.106 314.509 7.602C313.957 7.086 313.267 6.828 312.439 6.828ZM323.994 15.108C323.022 15.108 322.152 14.898 321.384 14.478C320.628 14.058 320.034 13.482 319.602 12.75C319.17 12.006 318.954 11.166 318.954 10.23C318.954 9.294 319.17 8.46 319.602 7.728C320.034 6.984 320.628 6.408 321.384 6C322.152 5.58 323.022 5.37 323.994 5.37C324.858 5.37 325.626 5.544 326.298 5.892C326.982 6.24 327.51 6.744 327.882 7.404L326.568 8.25C326.268 7.794 325.896 7.452 325.452 7.224C325.008 6.996 324.516 6.882 323.976 6.882C323.352 6.882 322.788 7.02 322.284 7.296C321.792 7.572 321.402 7.968 321.114 8.484C320.838 8.988 320.7 9.57 320.7 10.23C320.7 10.902 320.838 11.496 321.114 12.012C321.402 12.516 321.792 12.906 322.284 13.182C322.788 13.458 323.352 13.596 323.976 13.596C324.516 13.596 325.008 13.482 325.452 13.254C325.896 13.026 326.268 12.684 326.568 12.228L327.882 13.056C327.51 13.716 326.982 14.226 326.298 14.586C325.626 14.934 324.858 15.108 323.994 15.108Z" fill="#3B4252"/>
<path opacity="0.5" d="M1 21H327.004" stroke="#3B4252" stroke-width="2" stroke-miterlimit="1.30541" stroke-linecap="round" stroke-dasharray="0.1 4"/>
<path opacity="0.5" d="M1 70H311.004" stroke="#3B4252" stroke-width="2" stroke-miterlimit="1.30541" stroke-linecap="round" stroke-dasharray="0.1 4"/>
<path opacity="0.7" d="M2.962 51.4H12.466V52.93H4.744V56.53H8.668C10.168 56.53 11.308 56.842 12.088 57.466C12.868 58.09 13.258 58.99 13.258 60.166C13.258 61.402 12.832 62.35 11.98 63.01C11.14 63.67 9.934 64 8.362 64H2.962V51.4ZM8.29 62.578C9.322 62.578 10.108 62.38 10.648 61.984C11.188 61.588 11.458 61.006 11.458 60.238C11.458 58.714 10.402 57.952 8.29 57.952H4.744V62.578H8.29ZM19.242 54.37C20.562 54.37 21.57 54.694 22.266 55.342C22.974 55.99 23.328 56.956 23.328 58.24V64H21.69V62.74C21.402 63.184 20.988 63.526 20.448 63.766C19.92 63.994 19.29 64.108 18.558 64.108C17.49 64.108 16.632 63.85 15.984 63.334C15.348 62.818 15.03 62.14 15.03 61.3C15.03 60.46 15.336 59.788 15.948 59.284C16.56 58.768 17.532 58.51 18.864 58.51H21.6V58.168C21.6 57.424 21.384 56.854 20.952 56.458C20.52 56.062 19.884 55.864 19.044 55.864C18.48 55.864 17.928 55.96 17.388 56.152C16.848 56.332 16.392 56.578 16.02 56.89L15.3 55.594C15.792 55.198 16.38 54.898 17.064 54.694C17.748 54.478 18.474 54.37 19.242 54.37ZM18.846 62.776C19.506 62.776 20.076 62.632 20.556 62.344C21.036 62.044 21.384 61.624 21.6 61.084V59.752H18.936C17.472 59.752 16.74 60.244 16.74 61.228C16.74 61.708 16.926 62.086 17.298 62.362C17.67 62.638 18.186 62.776 18.846 62.776ZM26.4396 54.46H28.1676V58.51H33.6036V54.46H35.3316V64H33.6036V60.004H28.1676V64H26.4396V54.46ZM42.3996 59.968H40.4196V64H38.6916V54.46H40.4196V58.492H42.4356L45.5316 54.46H47.3856L43.7676 59.05L47.6376 64H45.6036L42.3996 59.968ZM49.4494 54.46H51.1774V61.408L57.0274 54.46H58.5934V64H56.8654V57.052L51.0334 64H49.4494V54.46ZM66.7814 54.46H68.5094V61.408L74.3594 54.46H75.9254V64H74.1974V57.052L68.3654 64H66.7814V54.46ZM96.1555 59.212C96.1555 60.688 95.6635 61.852 94.6795 62.704C93.6955 63.556 92.3095 64.03 90.5215 64.126V67.492H88.8295V64.126C87.0415 64.03 85.6555 63.562 84.6715 62.722C83.6995 61.87 83.2135 60.7 83.2135 59.212C83.2135 57.736 83.6995 56.584 84.6715 55.756C85.6435 54.928 87.0295 54.466 88.8295 54.37V50.644H90.5215V54.37C92.3095 54.466 93.6955 54.934 94.6795 55.774C95.6635 56.602 96.1555 57.748 96.1555 59.212ZM84.9235 59.212C84.9235 60.232 85.2475 61.03 85.8955 61.606C86.5555 62.182 87.5335 62.512 88.8295 62.596V55.9C87.5215 55.984 86.5435 56.308 85.8955 56.872C85.2475 57.436 84.9235 58.216 84.9235 59.212ZM90.5215 62.614C93.1375 62.41 94.4455 61.276 94.4455 59.212C94.4455 58.204 94.1155 57.424 93.4555 56.872C92.7955 56.308 91.8175 55.984 90.5215 55.9V62.614ZM98.5978 54.46H100.326V61.408L106.176 54.46H107.742V64H106.014V57.052L100.182 64H98.5978V54.46ZM111.096 54.46H112.824V58.51H118.26V54.46H119.988V64H118.26V60.004H112.824V64H111.096V54.46ZM126.75 54.37C128.07 54.37 129.078 54.694 129.774 55.342C130.482 55.99 130.836 56.956 130.836 58.24V64H129.198V62.74C128.91 63.184 128.496 63.526 127.956 63.766C127.428 63.994 126.798 64.108 126.066 64.108C124.998 64.108 124.14 63.85 123.492 63.334C122.856 62.818 122.538 62.14 122.538 61.3C122.538 60.46 122.844 59.788 123.456 59.284C124.068 58.768 125.04 58.51 126.372 58.51H129.108V58.168C129.108 57.424 128.892 56.854 128.46 56.458C128.028 56.062 127.392 55.864 126.552 55.864C125.988 55.864 125.436 55.96 124.896 56.152C124.356 56.332 123.9 56.578 123.528 56.89L122.808 55.594C123.3 55.198 123.888 54.898 124.572 54.694C125.256 54.478 125.982 54.37 126.75 54.37ZM126.354 62.776C127.014 62.776 127.584 62.632 128.064 62.344C128.544 62.044 128.892 61.624 129.108 61.084V59.752H126.444C124.98 59.752 124.248 60.244 124.248 61.228C124.248 61.708 124.434 62.086 124.806 62.362C125.178 62.638 125.694 62.776 126.354 62.776ZM133.947 54.46H135.675V58.51H141.111V54.46H142.839V64H141.111V60.004H135.675V64H133.947V54.46ZM150.357 64.108C149.385 64.108 148.515 63.898 147.747 63.478C146.991 63.058 146.397 62.482 145.965 61.75C145.533 61.006 145.317 60.166 145.317 59.23C145.317 58.294 145.533 57.46 145.965 56.728C146.397 55.984 146.991 55.408 147.747 55C148.515 54.58 149.385 54.37 150.357 54.37C151.221 54.37 151.989 54.544 152.661 54.892C153.345 55.24 153.873 55.744 154.245 56.404L152.931 57.25C152.631 56.794 152.259 56.452 151.815 56.224C151.371 55.996 150.879 55.882 150.339 55.882C149.715 55.882 149.151 56.02 148.647 56.296C148.155 56.572 147.765 56.968 147.477 57.484C147.201 57.988 147.063 58.57 147.063 59.23C147.063 59.902 147.201 60.496 147.477 61.012C147.765 61.516 148.155 61.906 148.647 62.182C149.151 62.458 149.715 62.596 150.339 62.596C150.879 62.596 151.371 62.482 151.815 62.254C152.259 62.026 152.631 61.684 152.931 61.228L154.245 62.056C153.873 62.716 153.345 63.226 152.661 63.586C151.989 63.934 151.221 64.108 150.357 64.108ZM160.428 64.108C159.48 64.108 158.628 63.898 157.872 63.478C157.116 63.058 156.522 62.482 156.09 61.75C155.67 61.006 155.46 60.166 155.46 59.23C155.46 58.294 155.67 57.46 156.09 56.728C156.522 55.984 157.116 55.408 157.872 55C158.628 54.58 159.48 54.37 160.428 54.37C161.376 54.37 162.222 54.58 162.966 55C163.722 55.408 164.31 55.984 164.73 56.728C165.162 57.46 165.378 58.294 165.378 59.23C165.378 60.166 165.162 61.006 164.73 61.75C164.31 62.482 163.722 63.058 162.966 63.478C162.222 63.898 161.376 64.108 160.428 64.108ZM160.428 62.596C161.04 62.596 161.586 62.458 162.066 62.182C162.558 61.894 162.942 61.498 163.218 60.994C163.494 60.478 163.632 59.89 163.632 59.23C163.632 58.57 163.494 57.988 163.218 57.484C162.942 56.968 162.558 56.572 162.066 56.296C161.586 56.02 161.04 55.882 160.428 55.882C159.816 55.882 159.264 56.02 158.772 56.296C158.292 56.572 157.908 56.968 157.62 57.484C157.344 57.988 157.206 58.57 157.206 59.23C157.206 59.89 157.344 60.478 157.62 60.994C157.908 61.498 158.292 61.894 158.772 62.182C159.264 62.458 159.816 62.596 160.428 62.596ZM174.371 59.05C175.607 59.362 176.225 60.136 176.225 61.372C176.225 62.212 175.907 62.86 175.271 63.316C174.647 63.772 173.711 64 172.463 64H167.873V54.46H172.301C173.429 54.46 174.311 54.676 174.947 55.108C175.583 55.528 175.901 56.128 175.901 56.908C175.901 57.412 175.763 57.85 175.487 58.222C175.223 58.582 174.851 58.858 174.371 59.05ZM169.565 58.564H172.157C172.817 58.564 173.315 58.444 173.651 58.204C173.999 57.964 174.173 57.616 174.173 57.16C174.173 56.248 173.501 55.792 172.157 55.792H169.565V58.564ZM172.337 62.668C173.057 62.668 173.597 62.554 173.957 62.326C174.317 62.098 174.497 61.744 174.497 61.264C174.497 60.772 174.329 60.406 173.993 60.166C173.669 59.926 173.153 59.806 172.445 59.806H169.565V62.668H172.337ZM183.232 57.7C184.432 57.712 185.35 57.988 185.986 58.528C186.622 59.068 186.94 59.83 186.94 60.814C186.94 61.846 186.592 62.644 185.896 63.208C185.212 63.76 184.228 64.03 182.944 64.018L178.93 64V54.46H180.658V57.682L183.232 57.7ZM188.362 54.46H190.09V64H188.362V54.46ZM182.818 62.704C183.598 62.716 184.186 62.56 184.582 62.236C184.99 61.912 185.194 61.432 185.194 60.796C185.194 60.172 184.996 59.716 184.6 59.428C184.204 59.14 183.61 58.99 182.818 58.978L180.658 58.942V62.686L182.818 62.704ZM202.071 59.284C202.071 59.416 202.059 59.59 202.035 59.806H194.295C194.403 60.646 194.769 61.324 195.393 61.84C196.029 62.344 196.815 62.596 197.751 62.596C198.891 62.596 199.809 62.212 200.505 61.444L201.459 62.56C201.027 63.064 200.487 63.448 199.839 63.712C199.203 63.976 198.489 64.108 197.697 64.108C196.689 64.108 195.795 63.904 195.015 63.496C194.235 63.076 193.629 62.494 193.197 61.75C192.777 61.006 192.567 60.166 192.567 59.23C192.567 58.306 192.771 57.472 193.179 56.728C193.599 55.984 194.169 55.408 194.889 55C195.621 54.58 196.443 54.37 197.355 54.37C198.267 54.37 199.077 54.58 199.785 55C200.505 55.408 201.063 55.984 201.459 56.728C201.867 57.472 202.071 58.324 202.071 59.284ZM197.355 55.828C196.527 55.828 195.831 56.08 195.267 56.584C194.715 57.088 194.391 57.748 194.295 58.564H200.415C200.319 57.76 199.989 57.106 199.425 56.602C198.873 56.086 198.183 55.828 197.355 55.828ZM213.672 64.108C212.724 64.108 211.872 63.898 211.116 63.478C210.36 63.058 209.766 62.482 209.334 61.75C208.914 61.006 208.704 60.166 208.704 59.23C208.704 58.294 208.914 57.46 209.334 56.728C209.766 55.984 210.36 55.408 211.116 55C211.872 54.58 212.724 54.37 213.672 54.37C214.62 54.37 215.466 54.58 216.21 55C216.966 55.408 217.554 55.984 217.974 56.728C218.406 57.46 218.622 58.294 218.622 59.23C218.622 60.166 218.406 61.006 217.974 61.75C217.554 62.482 216.966 63.058 216.21 63.478C215.466 63.898 214.62 64.108 213.672 64.108ZM213.672 62.596C214.284 62.596 214.83 62.458 215.31 62.182C215.802 61.894 216.186 61.498 216.462 60.994C216.738 60.478 216.876 59.89 216.876 59.23C216.876 58.57 216.738 57.988 216.462 57.484C216.186 56.968 215.802 56.572 215.31 56.296C214.83 56.02 214.284 55.882 213.672 55.882C213.06 55.882 212.508 56.02 212.016 56.296C211.536 56.572 211.152 56.968 210.864 57.484C210.588 57.988 210.45 58.57 210.45 59.23C210.45 59.89 210.588 60.478 210.864 60.994C211.152 61.498 211.536 61.894 212.016 62.182C212.508 62.458 213.06 62.596 213.672 62.596ZM229.955 54.46V64H228.227V55.972H222.845V64H221.117V54.46H229.955ZM241.921 59.284C241.921 59.416 241.909 59.59 241.885 59.806H234.145C234.253 60.646 234.619 61.324 235.243 61.84C235.879 62.344 236.665 62.596 237.601 62.596C238.741 62.596 239.659 62.212 240.355 61.444L241.309 62.56C240.877 63.064 240.337 63.448 239.689 63.712C239.053 63.976 238.339 64.108 237.547 64.108C236.539 64.108 235.645 63.904 234.865 63.496C234.085 63.076 233.479 62.494 233.047 61.75C232.627 61.006 232.417 60.166 232.417 59.23C232.417 58.306 232.621 57.472 233.029 56.728C233.449 55.984 234.019 55.408 234.739 55C235.471 54.58 236.293 54.37 237.205 54.37C238.117 54.37 238.927 54.58 239.635 55C240.355 55.408 240.913 55.984 241.309 56.728C241.717 57.472 241.921 58.324 241.921 59.284ZM237.205 55.828C236.377 55.828 235.681 56.08 235.117 56.584C234.565 57.088 234.241 57.748 234.145 58.564H240.265C240.169 57.76 239.839 57.106 239.275 56.602C238.723 56.086 238.033 55.828 237.205 55.828ZM249.66 54.37C250.584 54.37 251.412 54.574 252.144 54.982C252.876 55.39 253.446 55.96 253.854 56.692C254.274 57.424 254.484 58.27 254.484 59.23C254.484 60.19 254.274 61.042 253.854 61.786C253.446 62.518 252.876 63.088 252.144 63.496C251.412 63.904 250.584 64.108 249.66 64.108C248.976 64.108 248.346 63.976 247.77 63.712C247.206 63.448 246.726 63.064 246.33 62.56V67.492H244.602V54.46H246.258V55.972C246.642 55.444 247.128 55.048 247.716 54.784C248.304 54.508 248.952 54.37 249.66 54.37ZM249.516 62.596C250.128 62.596 250.674 62.458 251.154 62.182C251.646 61.894 252.03 61.498 252.306 60.994C252.594 60.478 252.738 59.89 252.738 59.23C252.738 58.57 252.594 57.988 252.306 57.484C252.03 56.968 251.646 56.572 251.154 56.296C250.674 56.02 250.128 55.882 249.516 55.882C248.916 55.882 248.37 56.026 247.878 56.314C247.398 56.59 247.014 56.98 246.726 57.484C246.45 57.988 246.312 58.57 246.312 59.23C246.312 59.89 246.45 60.478 246.726 60.994C247.002 61.498 247.386 61.894 247.878 62.182C248.37 62.458 248.916 62.596 249.516 62.596ZM260.308 54.37C261.628 54.37 262.636 54.694 263.332 55.342C264.04 55.99 264.394 56.956 264.394 58.24V64H262.756V62.74C262.468 63.184 262.054 63.526 261.514 63.766C260.986 63.994 260.356 64.108 259.624 64.108C258.556 64.108 257.698 63.85 257.05 63.334C256.414 62.818 256.096 62.14 256.096 61.3C256.096 60.46 256.402 59.788 257.014 59.284C257.626 58.768 258.598 58.51 259.93 58.51H262.666V58.168C262.666 57.424 262.45 56.854 262.018 56.458C261.586 56.062 260.95 55.864 260.11 55.864C259.546 55.864 258.994 55.96 258.454 56.152C257.914 56.332 257.458 56.578 257.086 56.89L256.366 55.594C256.858 55.198 257.446 54.898 258.13 54.694C258.814 54.478 259.54 54.37 260.308 54.37ZM259.912 62.776C260.572 62.776 261.142 62.632 261.622 62.344C262.102 62.044 262.45 61.624 262.666 61.084V59.752H260.002C258.538 59.752 257.806 60.244 257.806 61.228C257.806 61.708 257.992 62.086 258.364 62.362C258.736 62.638 259.252 62.776 259.912 62.776ZM274.616 55.972H271.124V64H269.396V55.972H265.904V54.46H274.616V55.972ZM280.047 64.108C279.099 64.108 278.247 63.898 277.491 63.478C276.735 63.058 276.141 62.482 275.709 61.75C275.289 61.006 275.079 60.166 275.079 59.23C275.079 58.294 275.289 57.46 275.709 56.728C276.141 55.984 276.735 55.408 277.491 55C278.247 54.58 279.099 54.37 280.047 54.37C280.995 54.37 281.841 54.58 282.585 55C283.341 55.408 283.929 55.984 284.349 56.728C284.781 57.46 284.997 58.294 284.997 59.23C284.997 60.166 284.781 61.006 284.349 61.75C283.929 62.482 283.341 63.058 282.585 63.478C281.841 63.898 280.995 64.108 280.047 64.108ZM280.047 62.596C280.659 62.596 281.205 62.458 281.685 62.182C282.177 61.894 282.561 61.498 282.837 60.994C283.113 60.478 283.251 59.89 283.251 59.23C283.251 58.57 283.113 57.988 282.837 57.484C282.561 56.968 282.177 56.572 281.685 56.296C281.205 56.02 280.659 55.882 280.047 55.882C279.435 55.882 278.883 56.02 278.391 56.296C277.911 56.572 277.527 56.968 277.239 57.484C276.963 57.988 276.825 58.57 276.825 59.23C276.825 59.89 276.963 60.478 277.239 60.994C277.527 61.498 277.911 61.894 278.391 62.182C278.883 62.458 279.435 62.596 280.047 62.596ZM292.55 54.37C293.474 54.37 294.302 54.574 295.034 54.982C295.766 55.39 296.336 55.96 296.744 56.692C297.164 57.424 297.374 58.27 297.374 59.23C297.374 60.19 297.164 61.042 296.744 61.786C296.336 62.518 295.766 63.088 295.034 63.496C294.302 63.904 293.474 64.108 292.55 64.108C291.866 64.108 291.236 63.976 290.66 63.712C290.096 63.448 289.616 63.064 289.22 62.56V67.492H287.492V54.46H289.148V55.972C289.532 55.444 290.018 55.048 290.606 54.784C291.194 54.508 291.842 54.37 292.55 54.37ZM292.406 62.596C293.018 62.596 293.564 62.458 294.044 62.182C294.536 61.894 294.92 61.498 295.196 60.994C295.484 60.478 295.628 59.89 295.628 59.23C295.628 58.57 295.484 57.988 295.196 57.484C294.92 56.968 294.536 56.572 294.044 56.296C293.564 56.02 293.018 55.882 292.406 55.882C291.806 55.882 291.26 56.026 290.768 56.314C290.288 56.59 289.904 56.98 289.616 57.484C289.34 57.988 289.202 58.57 289.202 59.23C289.202 59.89 289.34 60.478 289.616 60.994C289.892 61.498 290.276 61.894 290.768 62.182C291.26 62.458 291.806 62.596 292.406 62.596ZM304.187 57.7C305.387 57.712 306.305 57.988 306.941 58.528C307.577 59.068 307.895 59.83 307.895 60.814C307.895 61.846 307.547 62.644 306.851 63.208C306.167 63.76 305.183 64.03 303.899 64.018L299.885 64V54.46H301.613V57.682L304.187 57.7ZM309.317 54.46H311.045V64H309.317V54.46ZM303.773 62.704C304.553 62.716 305.141 62.56 305.537 62.236C305.945 61.912 306.149 61.432 306.149 60.796C306.149 60.172 305.951 59.716 305.555 59.428C305.159 59.14 304.565 58.99 303.773 58.978L301.613 58.942V62.686L303.773 62.704Z" fill="#3B4252"/>
<path opacity="0.5" d="M1 119H315.004" stroke="#3B4252" stroke-width="2" stroke-miterlimit="1.30541" stroke-linecap="round" stroke-dasharray="0.1 4"/>
<path opacity="0.7" d="M8.632 113.144C7.36 113.144 6.214 112.868 5.194 112.316C4.174 111.752 3.37 110.978 2.782 109.994C2.206 109.01 1.918 107.912 1.918 106.7C1.918 105.488 2.206 104.39 2.782 103.406C3.37 102.422 4.174 101.654 5.194 101.102C6.214 100.538 7.36 100.256 8.632 100.256C9.892 100.256 11.032 100.538 12.052 101.102C13.072 101.654 13.87 102.422 14.446 103.406C15.022 104.378 15.31 105.476 15.31 106.7C15.31 107.924 15.022 109.028 14.446 110.012C13.87 110.984 13.072 111.752 12.052 112.316C11.032 112.868 9.892 113.144 8.632 113.144ZM8.632 111.542C9.556 111.542 10.384 111.332 11.116 110.912C11.86 110.492 12.442 109.916 12.862 109.184C13.294 108.44 13.51 107.612 13.51 106.7C13.51 105.788 13.294 104.966 12.862 104.234C12.442 103.49 11.86 102.908 11.116 102.488C10.384 102.068 9.556 101.858 8.632 101.858C7.708 101.858 6.868 102.068 6.112 102.488C5.368 102.908 4.78 103.49 4.348 104.234C3.928 104.966 3.718 105.788 3.718 106.7C3.718 107.612 3.928 108.44 4.348 109.184C4.78 109.916 5.368 110.492 6.112 110.912C6.868 111.332 7.708 111.542 8.632 111.542ZM22.9898 103.37C23.9138 103.37 24.7418 103.574 25.4738 103.982C26.2058 104.39 26.7758 104.96 27.1838 105.692C27.6038 106.424 27.8138 107.27 27.8138 108.23C27.8138 109.19 27.6038 110.042 27.1838 110.786C26.7758 111.518 26.2058 112.088 25.4738 112.496C24.7418 112.904 23.9138 113.108 22.9898 113.108C22.3058 113.108 21.6758 112.976 21.0998 112.712C20.5358 112.448 20.0558 112.064 19.6598 111.56V116.492H17.9318V103.46H19.5878V104.972C19.9718 104.444 20.4578 104.048 21.0458 103.784C21.6338 103.508 22.2818 103.37 22.9898 103.37ZM22.8458 111.596C23.4578 111.596 24.0038 111.458 24.4838 111.182C24.9758 110.894 25.3598 110.498 25.6358 109.994C25.9238 109.478 26.0678 108.89 26.0678 108.23C26.0678 107.57 25.9238 106.988 25.6358 106.484C25.3598 105.968 24.9758 105.572 24.4838 105.296C24.0038 105.02 23.4578 104.882 22.8458 104.882C22.2458 104.882 21.6998 105.026 21.2078 105.314C20.7278 105.59 20.3438 105.98 20.0558 106.484C19.7798 106.988 19.6418 107.57 19.6418 108.23C19.6418 108.89 19.7798 109.478 20.0558 109.994C20.3318 110.498 20.7158 110.894 21.2078 111.182C21.6998 111.458 22.2458 111.596 22.8458 111.596ZM37.3444 104.972H32.0524V113H30.3244V103.46H37.3444V104.972ZM42.5155 103.37C43.8355 103.37 44.8435 103.694 45.5395 104.342C46.2475 104.99 46.6015 105.956 46.6015 107.24V113H44.9635V111.74C44.6755 112.184 44.2615 112.526 43.7215 112.766C43.1935 112.994 42.5635 113.108 41.8315 113.108C40.7635 113.108 39.9055 112.85 39.2575 112.334C38.6215 111.818 38.3035 111.14 38.3035 110.3C38.3035 109.46 38.6095 108.788 39.2215 108.284C39.8335 107.768 40.8055 107.51 42.1375 107.51H44.8735V107.168C44.8735 106.424 44.6575 105.854 44.2255 105.458C43.7935 105.062 43.1575 104.864 42.3175 104.864C41.7535 104.864 41.2015 104.96 40.6615 105.152C40.1215 105.332 39.6655 105.578 39.2935 105.89L38.5735 104.594C39.0655 104.198 39.6535 103.898 40.3375 103.694C41.0215 103.478 41.7475 103.37 42.5155 103.37ZM42.1195 111.776C42.7795 111.776 43.3495 111.632 43.8295 111.344C44.3095 111.044 44.6575 110.624 44.8735 110.084V108.752H42.2095C40.7455 108.752 40.0135 109.244 40.0135 110.228C40.0135 110.708 40.1995 111.086 40.5715 111.362C40.9435 111.638 41.4595 111.776 42.1195 111.776ZM49.7131 103.46H51.4411V107.51H56.8771V103.46H58.6051V113H56.8771V109.004H51.4411V113H49.7131V103.46ZM66.267 106.7C67.467 106.712 68.385 106.988 69.021 107.528C69.657 108.068 69.975 108.83 69.975 109.814C69.975 110.846 69.627 111.644 68.931 112.208C68.247 112.76 67.263 113.03 65.979 113.018L61.965 113V103.46H63.693V106.682L66.267 106.7ZM71.397 103.46H73.125V113H71.397V103.46ZM65.853 111.704C66.633 111.716 67.221 111.56 67.617 111.236C68.025 110.912 68.229 110.432 68.229 109.796C68.229 109.172 68.031 108.716 67.635 108.428C67.239 108.14 66.645 107.99 65.853 107.978L63.693 107.942V111.686L65.853 111.704ZM88.3385 104.972H83.0465V113H81.3185V103.46H88.3385V104.972ZM93.7717 113.108C92.8237 113.108 91.9717 112.898 91.2157 112.478C90.4597 112.058 89.8657 111.482 89.4337 110.75C89.0137 110.006 88.8037 109.166 88.8037 108.23C88.8037 107.294 89.0137 106.46 89.4337 105.728C89.8657 104.984 90.4597 104.408 91.2157 104C91.9717 103.58 92.8237 103.37 93.7717 103.37C94.7197 103.37 95.5657 103.58 96.3097 104C97.0657 104.408 97.6537 104.984 98.0737 105.728C98.5057 106.46 98.7217 107.294 98.7217 108.23C98.7217 109.166 98.5057 110.006 98.0737 110.75C97.6537 111.482 97.0657 112.058 96.3097 112.478C95.5657 112.898 94.7197 113.108 93.7717 113.108ZM93.7717 111.596C94.3837 111.596 94.9297 111.458 95.4097 111.182C95.9017 110.894 96.2857 110.498 96.5617 109.994C96.8377 109.478 96.9757 108.89 96.9757 108.23C96.9757 107.57 96.8377 106.988 96.5617 106.484C96.2857 105.968 95.9017 105.572 95.4097 105.296C94.9297 105.02 94.3837 104.882 93.7717 104.882C93.1597 104.882 92.6077 105.02 92.1157 105.296C91.6357 105.572 91.2517 105.968 90.9637 106.484C90.6877 106.988 90.5497 107.57 90.5497 108.23C90.5497 108.89 90.6877 109.478 90.9637 109.994C91.2517 110.498 91.6357 110.894 92.1157 111.182C92.6077 111.458 93.1597 111.596 93.7717 111.596ZM105.375 113.108C104.403 113.108 103.533 112.898 102.765 112.478C102.009 112.058 101.415 111.482 100.983 110.75C100.551 110.006 100.335 109.166 100.335 108.23C100.335 107.294 100.551 106.46 100.983 105.728C101.415 104.984 102.009 104.408 102.765 104C103.533 103.58 104.403 103.37 105.375 103.37C106.239 103.37 107.007 103.544 107.679 103.892C108.363 104.24 108.891 104.744 109.263 105.404L107.949 106.25C107.649 105.794 107.277 105.452 106.833 105.224C106.389 104.996 105.897 104.882 105.357 104.882C104.733 104.882 104.169 105.02 103.665 105.296C103.173 105.572 102.783 105.968 102.495 106.484C102.219 106.988 102.081 107.57 102.081 108.23C102.081 108.902 102.219 109.496 102.495 110.012C102.783 110.516 103.173 110.906 103.665 111.182C104.169 111.458 104.733 111.596 105.357 111.596C105.897 111.596 106.389 111.482 106.833 111.254C107.277 111.026 107.649 110.684 107.949 110.228L109.263 111.056C108.891 111.716 108.363 112.226 107.679 112.586C107.007 112.934 106.239 113.108 105.375 113.108ZM119.891 103.46L115.265 113.954C114.857 114.926 114.377 115.61 113.825 116.006C113.285 116.402 112.631 116.6 111.863 116.6C111.395 116.6 110.939 116.522 110.495 116.366C110.063 116.222 109.703 116.006 109.415 115.718L110.153 114.422C110.645 114.89 111.215 115.124 111.863 115.124C112.283 115.124 112.631 115.01 112.907 114.782C113.195 114.566 113.453 114.188 113.681 113.648L113.987 112.982L109.775 103.46H111.575L114.905 111.092L118.199 103.46H119.891ZM130.853 111.488V115.214H129.233V113H121.259V115.214H119.621V111.488H120.125C120.737 111.452 121.157 111.02 121.385 110.192C121.613 109.364 121.769 108.194 121.853 106.682L121.997 103.46H129.395V111.488H130.853ZM123.437 106.808C123.389 108.008 123.287 109.004 123.131 109.796C122.987 110.576 122.717 111.14 122.321 111.488H127.667V104.972H123.527L123.437 106.808ZM136.506 103.37C137.826 103.37 138.834 103.694 139.53 104.342C140.238 104.99 140.592 105.956 140.592 107.24V113H138.954V111.74C138.666 112.184 138.252 112.526 137.712 112.766C137.184 112.994 136.554 113.108 135.822 113.108C134.754 113.108 133.896 112.85 133.248 112.334C132.612 111.818 132.294 111.14 132.294 110.3C132.294 109.46 132.6 108.788 133.212 108.284C133.824 107.768 134.796 107.51 136.128 107.51H138.864V107.168C138.864 106.424 138.648 105.854 138.216 105.458C137.784 105.062 137.148 104.864 136.308 104.864C135.744 104.864 135.192 104.96 134.652 105.152C134.112 105.332 133.656 105.578 133.284 105.89L132.564 104.594C133.056 104.198 133.644 103.898 134.328 103.694C135.012 103.478 135.738 103.37 136.506 103.37ZM136.11 111.776C136.77 111.776 137.34 111.632 137.82 111.344C138.3 111.044 138.648 110.624 138.864 110.084V108.752H136.2C134.736 108.752 134.004 109.244 134.004 110.228C134.004 110.708 134.19 111.086 134.562 111.362C134.934 111.638 135.45 111.776 136.11 111.776ZM148.761 103.37C149.685 103.37 150.513 103.574 151.245 103.982C151.977 104.39 152.547 104.96 152.955 105.692C153.375 106.424 153.585 107.27 153.585 108.23C153.585 109.19 153.375 110.042 152.955 110.786C152.547 111.518 151.977 112.088 151.245 112.496C150.513 112.904 149.685 113.108 148.761 113.108C148.077 113.108 147.447 112.976 146.871 112.712C146.307 112.448 145.827 112.064 145.431 111.56V116.492H143.703V103.46H145.359V104.972C145.743 104.444 146.229 104.048 146.817 103.784C147.405 103.508 148.053 103.37 148.761 103.37ZM148.617 111.596C149.229 111.596 149.775 111.458 150.255 111.182C150.747 110.894 151.131 110.498 151.407 109.994C151.695 109.478 151.839 108.89 151.839 108.23C151.839 107.57 151.695 106.988 151.407 106.484C151.131 105.968 150.747 105.572 150.255 105.296C149.775 105.02 149.229 104.882 148.617 104.882C148.017 104.882 147.471 105.026 146.979 105.314C146.499 105.59 146.115 105.98 145.827 106.484C145.551 106.988 145.413 107.57 145.413 108.23C145.413 108.89 145.551 109.478 145.827 109.994C146.103 110.498 146.487 110.894 146.979 111.182C147.471 111.458 148.017 111.596 148.617 111.596ZM160.254 113.108C159.282 113.108 158.412 112.898 157.644 112.478C156.888 112.058 156.294 111.482 155.862 110.75C155.43 110.006 155.214 109.166 155.214 108.23C155.214 107.294 155.43 106.46 155.862 105.728C156.294 104.984 156.888 104.408 157.644 104C158.412 103.58 159.282 103.37 160.254 103.37C161.118 103.37 161.886 103.544 162.558 103.892C163.242 104.24 163.77 104.744 164.142 105.404L162.828 106.25C162.528 105.794 162.156 105.452 161.712 105.224C161.268 104.996 160.776 104.882 160.236 104.882C159.612 104.882 159.048 105.02 158.544 105.296C158.052 105.572 157.662 105.968 157.374 106.484C157.098 106.988 156.96 107.57 156.96 108.23C156.96 108.902 157.098 109.496 157.374 110.012C157.662 110.516 158.052 110.906 158.544 111.182C159.048 111.458 159.612 111.596 160.236 111.596C160.776 111.596 161.268 111.482 161.712 111.254C162.156 111.026 162.528 110.684 162.828 110.228L164.142 111.056C163.77 111.716 163.242 112.226 162.558 112.586C161.886 112.934 161.118 113.108 160.254 113.108ZM173.366 104.972H169.874V113H168.146V104.972H164.654V103.46H173.366V104.972ZM181.631 108.05C182.867 108.362 183.485 109.136 183.485 110.372C183.485 111.212 183.167 111.86 182.531 112.316C181.907 112.772 180.971 113 179.723 113H175.133V103.46H179.561C180.689 103.46 181.571 103.676 182.207 104.108C182.843 104.528 183.161 105.128 183.161 105.908C183.161 106.412 183.023 106.85 182.747 107.222C182.483 107.582 182.111 107.858 181.631 108.05ZM176.825 107.564H179.417C180.077 107.564 180.575 107.444 180.911 107.204C181.259 106.964 181.433 106.616 181.433 106.16C181.433 105.248 180.761 104.792 179.417 104.792H176.825V107.564ZM179.597 111.668C180.317 111.668 180.857 111.554 181.217 111.326C181.577 111.098 181.757 110.744 181.757 110.264C181.757 109.772 181.589 109.406 181.253 109.166C180.929 108.926 180.413 108.806 179.705 108.806H176.825V111.668H179.597ZM194.812 108.284C194.812 108.416 194.8 108.59 194.776 108.806H187.036C187.144 109.646 187.51 110.324 188.134 110.84C188.77 111.344 189.556 111.596 190.492 111.596C191.632 111.596 192.55 111.212 193.246 110.444L194.2 111.56C193.768 112.064 193.228 112.448 192.58 112.712C191.944 112.976 191.23 113.108 190.438 113.108C189.43 113.108 188.536 112.904 187.756 112.496C186.976 112.076 186.37 111.494 185.938 110.75C185.518 110.006 185.308 109.166 185.308 108.23C185.308 107.306 185.512 106.472 185.92 105.728C186.34 104.984 186.91 104.408 187.63 104C188.362 103.58 189.184 103.37 190.096 103.37C191.008 103.37 191.818 103.58 192.526 104C193.246 104.408 193.804 104.984 194.2 105.728C194.608 106.472 194.812 107.324 194.812 108.284ZM190.096 104.828C189.268 104.828 188.572 105.08 188.008 105.584C187.456 106.088 187.132 106.748 187.036 107.564H193.156C193.06 106.76 192.73 106.106 192.166 105.602C191.614 105.086 190.924 104.828 190.096 104.828ZM197.492 103.46H199.22V107.51H204.656V103.46H206.384V113H204.656V109.004H199.22V113H197.492V103.46ZM209.744 103.46H211.472V107.51H216.908V103.46H218.636V113H216.908V109.004H211.472V113H209.744V103.46ZM226.082 113.108C225.134 113.108 224.282 112.898 223.526 112.478C222.77 112.058 222.176 111.482 221.744 110.75C221.324 110.006 221.114 109.166 221.114 108.23C221.114 107.294 221.324 106.46 221.744 105.728C222.176 104.984 222.77 104.408 223.526 104C224.282 103.58 225.134 103.37 226.082 103.37C227.03 103.37 227.876 103.58 228.62 104C229.376 104.408 229.964 104.984 230.384 105.728C230.816 106.46 231.032 107.294 231.032 108.23C231.032 109.166 230.816 110.006 230.384 110.75C229.964 111.482 229.376 112.058 228.62 112.478C227.876 112.898 227.03 113.108 226.082 113.108ZM226.082 111.596C226.694 111.596 227.24 111.458 227.72 111.182C228.212 110.894 228.596 110.498 228.872 109.994C229.148 109.478 229.286 108.89 229.286 108.23C229.286 107.57 229.148 106.988 228.872 106.484C228.596 105.968 228.212 105.572 227.72 105.296C227.24 105.02 226.694 104.882 226.082 104.882C225.47 104.882 224.918 105.02 224.426 105.296C223.946 105.572 223.562 105.968 223.274 106.484C222.998 106.988 222.86 107.57 222.86 108.23C222.86 108.89 222.998 109.478 223.274 109.994C223.562 110.498 223.946 110.894 224.426 111.182C224.918 111.458 225.47 111.596 226.082 111.596ZM233.528 103.46H235.256V110.408L241.106 103.46H242.672V113H240.944V106.052L235.112 113H233.528V103.46ZM237.992 102.218C237.104 102.218 236.414 102.008 235.922 101.588C235.43 101.156 235.178 100.538 235.166 99.734H236.336C236.348 100.178 236.498 100.538 236.786 100.814C237.086 101.078 237.482 101.21 237.974 101.21C238.466 101.21 238.862 101.078 239.162 100.814C239.462 100.538 239.618 100.178 239.63 99.734H240.836C240.824 100.538 240.566 101.156 240.062 101.588C239.558 102.008 238.868 102.218 237.992 102.218ZM257.358 108.05C258.594 108.362 259.212 109.136 259.212 110.372C259.212 111.212 258.894 111.86 258.258 112.316C257.634 112.772 256.698 113 255.45 113H250.86V103.46H255.288C256.416 103.46 257.298 103.676 257.934 104.108C258.57 104.528 258.888 105.128 258.888 105.908C258.888 106.412 258.75 106.85 258.474 107.222C258.21 107.582 257.838 107.858 257.358 108.05ZM252.552 107.564H255.144C255.804 107.564 256.302 107.444 256.638 107.204C256.986 106.964 257.16 106.616 257.16 106.16C257.16 105.248 256.488 104.792 255.144 104.792H252.552V107.564ZM255.324 111.668C256.044 111.668 256.584 111.554 256.944 111.326C257.304 111.098 257.484 110.744 257.484 110.264C257.484 109.772 257.316 109.406 256.98 109.166C256.656 108.926 256.14 108.806 255.432 108.806H252.552V111.668H255.324ZM270.106 103.46V113H268.378V104.972H264.274L264.166 107.096C264.106 108.38 263.992 109.454 263.824 110.318C263.656 111.17 263.38 111.854 262.996 112.37C262.612 112.886 262.078 113.144 261.394 113.144C261.082 113.144 260.728 113.09 260.332 112.982L260.44 111.524C260.596 111.56 260.74 111.578 260.872 111.578C261.352 111.578 261.712 111.368 261.952 110.948C262.192 110.528 262.348 110.03 262.42 109.454C262.492 108.878 262.558 108.056 262.618 106.988L262.78 103.46H270.106ZM276.849 103.37C278.169 103.37 279.177 103.694 279.873 104.342C280.581 104.99 280.935 105.956 280.935 107.24V113H279.297V111.74C279.009 112.184 278.595 112.526 278.055 112.766C277.527 112.994 276.897 113.108 276.165 113.108C275.097 113.108 274.239 112.85 273.591 112.334C272.955 111.818 272.637 111.14 272.637 110.3C272.637 109.46 272.943 108.788 273.555 108.284C274.167 107.768 275.139 107.51 276.471 107.51H279.207V107.168C279.207 106.424 278.991 105.854 278.559 105.458C278.127 105.062 277.491 104.864 276.651 104.864C276.087 104.864 275.535 104.96 274.995 105.152C274.455 105.332 273.999 105.578 273.627 105.89L272.907 104.594C273.399 104.198 273.987 103.898 274.671 103.694C275.355 103.478 276.081 103.37 276.849 103.37ZM276.453 111.776C277.113 111.776 277.683 111.632 278.163 111.344C278.643 111.044 278.991 110.624 279.207 110.084V108.752H276.543C275.079 108.752 274.347 109.244 274.347 110.228C274.347 110.708 274.533 111.086 274.905 111.362C275.277 111.638 275.793 111.776 276.453 111.776ZM288.205 113.108C287.233 113.108 286.363 112.898 285.595 112.478C284.839 112.058 284.245 111.482 283.813 110.75C283.381 110.006 283.165 109.166 283.165 108.23C283.165 107.294 283.381 106.46 283.813 105.728C284.245 104.984 284.839 104.408 285.595 104C286.363 103.58 287.233 103.37 288.205 103.37C289.069 103.37 289.837 103.544 290.509 103.892C291.193 104.24 291.721 104.744 292.093 105.404L290.779 106.25C290.479 105.794 290.107 105.452 289.663 105.224C289.219 104.996 288.727 104.882 288.187 104.882C287.563 104.882 286.999 105.02 286.495 105.296C286.003 105.572 285.613 105.968 285.325 106.484C285.049 106.988 284.911 107.57 284.911 108.23C284.911 108.902 285.049 109.496 285.325 110.012C285.613 110.516 286.003 110.906 286.495 111.182C286.999 111.458 287.563 111.596 288.187 111.596C288.727 111.596 289.219 111.482 289.663 111.254C290.107 111.026 290.479 110.684 290.779 110.228L292.093 111.056C291.721 111.716 291.193 112.226 290.509 112.586C289.837 112.934 289.069 113.108 288.205 113.108ZM301.317 104.972H297.825V113H296.097V104.972H292.605V103.46H301.317V104.972ZM303.084 103.46H304.812V110.408L310.662 103.46H312.228V113H310.5V106.052L304.668 113H303.084V103.46Z" fill="#3B4252"/>
<path opacity="0.5" d="M1 177H325.004" stroke="#3B4252" stroke-width="2" stroke-miterlimit="1.30541" stroke-linecap="round" stroke-dasharray="0.1 4"/>
<path opacity="0.7" d="M13.816 138.4V151H12.052V139.966H4.744V151H2.962V138.4H13.816ZM22.5152 141.37C23.4392 141.37 24.2672 141.574 24.9992 141.982C25.7312 142.39 26.3012 142.96 26.7092 143.692C27.1292 144.424 27.3392 145.27 27.3392 146.23C27.3392 147.19 27.1292 148.042 26.7092 148.786C26.3012 149.518 25.7312 150.088 24.9992 150.496C24.2672 150.904 23.4392 151.108 22.5152 151.108C21.8312 151.108 21.2012 150.976 20.6252 150.712C20.0612 150.448 19.5812 150.064 19.1852 149.56V154.492H17.4572V141.46H19.1132V142.972C19.4972 142.444 19.9832 142.048 20.5712 141.784C21.1592 141.508 21.8072 141.37 22.5152 141.37ZM22.3712 149.596C22.9832 149.596 23.5292 149.458 24.0092 149.182C24.5012 148.894 24.8852 148.498 25.1612 147.994C25.4492 147.478 25.5932 146.89 25.5932 146.23C25.5932 145.57 25.4492 144.988 25.1612 144.484C24.8852 143.968 24.5012 143.572 24.0092 143.296C23.5292 143.02 22.9832 142.882 22.3712 142.882C21.7712 142.882 21.2252 143.026 20.7332 143.314C20.2532 143.59 19.8692 143.98 19.5812 144.484C19.3052 144.988 19.1672 145.57 19.1672 146.23C19.1672 146.89 19.3052 147.478 19.5812 147.994C19.8572 148.498 20.2412 148.894 20.7332 149.182C21.2252 149.458 21.7712 149.596 22.3712 149.596ZM38.4718 146.284C38.4718 146.416 38.4598 146.59 38.4358 146.806H30.6958C30.8038 147.646 31.1698 148.324 31.7938 148.84C32.4298 149.344 33.2158 149.596 34.1518 149.596C35.2918 149.596 36.2098 149.212 36.9058 148.444L37.8598 149.56C37.4278 150.064 36.8878 150.448 36.2398 150.712C35.6038 150.976 34.8898 151.108 34.0978 151.108C33.0898 151.108 32.1958 150.904 31.4158 150.496C30.6358 150.076 30.0298 149.494 29.5978 148.75C29.1778 148.006 28.9678 147.166 28.9678 146.23C28.9678 145.306 29.1718 144.472 29.5798 143.728C29.9998 142.984 30.5698 142.408 31.2898 142C32.0218 141.58 32.8438 141.37 33.7558 141.37C34.6678 141.37 35.4778 141.58 36.1858 142C36.9058 142.408 37.4638 142.984 37.8598 143.728C38.2678 144.472 38.4718 145.324 38.4718 146.284ZM33.7558 142.828C32.9278 142.828 32.2318 143.08 31.6678 143.584C31.1158 144.088 30.7918 144.748 30.6958 145.564H36.8158C36.7198 144.76 36.3898 144.106 35.8258 143.602C35.2738 143.086 34.5838 142.828 33.7558 142.828ZM50.6963 149.488V153.214H49.0763V151H41.1023V153.214H39.4643V149.488H39.9683C40.5803 149.452 41.0003 149.02 41.2283 148.192C41.4563 147.364 41.6123 146.194 41.6963 144.682L41.8403 141.46H49.2383V149.488H50.6963ZM43.2803 144.808C43.2323 146.008 43.1303 147.004 42.9743 147.796C42.8303 148.576 42.5603 149.14 42.1643 149.488H47.5103V142.972H43.3703L43.2803 144.808ZM61.7854 141.46V151H60.0574V142.972H54.6754V151H52.9474V141.46H61.7854ZM70.1871 141.37C71.1111 141.37 71.9391 141.574 72.6711 141.982C73.4031 142.39 73.9731 142.96 74.3811 143.692C74.8011 144.424 75.0111 145.27 75.0111 146.23C75.0111 147.19 74.8011 148.042 74.3811 148.786C73.9731 149.518 73.4031 150.088 72.6711 150.496C71.9391 150.904 71.1111 151.108 70.1871 151.108C69.5031 151.108 68.8731 150.976 68.2971 150.712C67.7331 150.448 67.2531 150.064 66.8571 149.56V154.492H65.1291V141.46H66.7851V142.972C67.1691 142.444 67.6551 142.048 68.2431 141.784C68.8311 141.508 69.4791 141.37 70.1871 141.37ZM70.0431 149.596C70.6551 149.596 71.2011 149.458 71.6811 149.182C72.1731 148.894 72.5571 148.498 72.8331 147.994C73.1211 147.478 73.2651 146.89 73.2651 146.23C73.2651 145.57 73.1211 144.988 72.8331 144.484C72.5571 143.968 72.1731 143.572 71.6811 143.296C71.2011 143.02 70.6551 142.882 70.0431 142.882C69.4431 142.882 68.8971 143.026 68.4051 143.314C67.9251 143.59 67.5411 143.98 67.2531 144.484C66.9771 144.988 66.8391 145.57 66.8391 146.23C66.8391 146.89 66.9771 147.478 67.2531 147.994C67.5291 148.498 67.9131 148.894 68.4051 149.182C68.8971 149.458 69.4431 149.596 70.0431 149.596ZM77.5217 141.46H79.2497V148.408L85.0997 141.46H86.6657V151H84.9377V144.052L79.1057 151H77.5217V141.46ZM97.6697 141.46V151H96.1217V147.976H93.3497H93.1517L91.0637 151H89.2097L91.5317 147.742C90.8117 147.526 90.2597 147.172 89.8757 146.68C89.4917 146.176 89.2997 145.552 89.2997 144.808C89.2997 143.716 89.6717 142.888 90.4157 142.324C91.1597 141.748 92.1857 141.46 93.4937 141.46H97.6697ZM91.0637 144.862C91.0637 145.498 91.2617 145.972 91.6577 146.284C92.0657 146.584 92.6717 146.734 93.4757 146.734H96.1217V142.972H93.5477C91.8917 142.972 91.0637 143.602 91.0637 144.862ZM108.151 142.972H104.659V151H102.931V142.972H99.4392V141.46H108.151V142.972ZM109.918 141.46H111.646V148.408L117.496 141.46H119.062V151H117.334V144.052L111.502 151H109.918V141.46ZM130.066 141.46V151H128.518V147.976H125.746H125.548L123.46 151H121.606L123.928 147.742C123.208 147.526 122.656 147.172 122.272 146.68C121.888 146.176 121.696 145.552 121.696 144.808C121.696 143.716 122.068 142.888 122.812 142.324C123.556 141.748 124.582 141.46 125.89 141.46H130.066ZM123.46 144.862C123.46 145.498 123.658 145.972 124.054 146.284C124.462 146.584 125.068 146.734 125.872 146.734H128.518V142.972H125.944C124.288 142.972 123.46 143.602 123.46 144.862ZM141.98 146.968H140V151H138.272V141.46H140V145.492H142.016L145.112 141.46H146.966L143.348 146.05L147.218 151H145.184L141.98 146.968ZM156.999 141.46L152.373 151.954C151.965 152.926 151.485 153.61 150.933 154.006C150.393 154.402 149.739 154.6 148.971 154.6C148.503 154.6 148.047 154.522 147.603 154.366C147.171 154.222 146.811 154.006 146.523 153.718L147.261 152.422C147.753 152.89 148.323 153.124 148.971 153.124C149.391 153.124 149.739 153.01 150.015 152.782C150.303 152.566 150.561 152.188 150.789 151.648L151.095 150.982L146.883 141.46H148.683L152.013 149.092L155.307 141.46H156.999ZM166.448 141.46V151H164.72V142.972H160.616L160.508 145.096C160.448 146.38 160.334 147.454 160.166 148.318C159.998 149.17 159.722 149.854 159.338 150.37C158.954 150.886 158.42 151.144 157.736 151.144C157.424 151.144 157.07 151.09 156.674 150.982L156.782 149.524C156.938 149.56 157.082 149.578 157.214 149.578C157.694 149.578 158.054 149.368 158.294 148.948C158.534 148.528 158.69 148.03 158.762 147.454C158.834 146.878 158.9 146.056 158.96 144.988L159.122 141.46H166.448ZM174.199 144.7C175.411 144.712 176.335 144.988 176.971 145.528C177.607 146.068 177.925 146.83 177.925 147.814C177.925 148.846 177.577 149.644 176.881 150.208C176.197 150.76 175.213 151.03 173.929 151.018L169.789 151V141.46H171.517V144.682L174.199 144.7ZM173.785 149.704C174.565 149.716 175.153 149.56 175.549 149.236C175.957 148.912 176.161 148.432 176.161 147.796C176.161 147.172 175.963 146.716 175.567 146.428C175.183 146.14 174.589 145.99 173.785 145.978L171.517 145.942V149.686L173.785 149.704ZM186.321 142.972H182.829V151H181.101V142.972H177.609V141.46H186.321V142.972ZM196.655 141.46L192.029 151.954C191.621 152.926 191.141 153.61 190.589 154.006C190.049 154.402 189.395 154.6 188.627 154.6C188.159 154.6 187.703 154.522 187.259 154.366C186.827 154.222 186.467 154.006 186.179 153.718L186.917 152.422C187.409 152.89 187.979 153.124 188.627 153.124C189.047 153.124 189.395 153.01 189.671 152.782C189.959 152.566 190.217 152.188 190.445 151.648L190.751 150.982L186.539 141.46H188.339L191.669 149.092L194.963 141.46H196.655ZM203.482 141.37C204.406 141.37 205.234 141.574 205.966 141.982C206.698 142.39 207.268 142.96 207.676 143.692C208.096 144.424 208.306 145.27 208.306 146.23C208.306 147.19 208.096 148.042 207.676 148.786C207.268 149.518 206.698 150.088 205.966 150.496C205.234 150.904 204.406 151.108 203.482 151.108C202.798 151.108 202.168 150.976 201.592 150.712C201.028 150.448 200.548 150.064 200.152 149.56V154.492H198.424V141.46H200.08V142.972C200.464 142.444 200.95 142.048 201.538 141.784C202.126 141.508 202.774 141.37 203.482 141.37ZM203.338 149.596C203.95 149.596 204.496 149.458 204.976 149.182C205.468 148.894 205.852 148.498 206.128 147.994C206.416 147.478 206.56 146.89 206.56 146.23C206.56 145.57 206.416 144.988 206.128 144.484C205.852 143.968 205.468 143.572 204.976 143.296C204.496 143.02 203.95 142.882 203.338 142.882C202.738 142.882 202.192 143.026 201.7 143.314C201.22 143.59 200.836 143.98 200.548 144.484C200.272 144.988 200.134 145.57 200.134 146.23C200.134 146.89 200.272 147.478 200.548 147.994C200.824 148.498 201.208 148.894 201.7 149.182C202.192 149.458 202.738 149.596 203.338 149.596ZM215.119 144.7C216.319 144.712 217.237 144.988 217.873 145.528C218.509 146.068 218.827 146.83 218.827 147.814C218.827 148.846 218.479 149.644 217.783 150.208C217.099 150.76 216.115 151.03 214.831 151.018L210.817 151V141.46H212.545V144.682L215.119 144.7ZM220.249 141.46H221.977V151H220.249V141.46ZM214.705 149.704C215.485 149.716 216.073 149.56 216.469 149.236C216.877 148.912 217.081 148.432 217.081 147.796C217.081 147.172 216.883 146.716 216.487 146.428C216.091 146.14 215.497 145.99 214.705 145.978L212.545 145.942V149.686L214.705 149.704ZM225.732 148.642C226.068 148.642 226.344 148.762 226.56 149.002C226.788 149.23 226.902 149.518 226.902 149.866C226.902 150.046 226.878 150.22 226.83 150.388C226.794 150.556 226.716 150.814 226.596 151.162L225.75 153.664H224.616L225.282 150.982C225.054 150.898 224.868 150.76 224.724 150.568C224.592 150.364 224.526 150.13 224.526 149.866C224.526 149.506 224.64 149.212 224.868 148.984C225.096 148.756 225.384 148.642 225.732 148.642ZM6.76 169.108C5.812 169.108 4.96 168.898 4.204 168.478C3.448 168.058 2.854 167.482 2.422 166.75C2.002 166.006 1.792 165.166 1.792 164.23C1.792 163.294 2.002 162.46 2.422 161.728C2.854 160.984 3.448 160.408 4.204 160C4.96 159.58 5.812 159.37 6.76 159.37C7.708 159.37 8.554 159.58 9.298 160C10.054 160.408 10.642 160.984 11.062 161.728C11.494 162.46 11.71 163.294 11.71 164.23C11.71 165.166 11.494 166.006 11.062 166.75C10.642 167.482 10.054 168.058 9.298 168.478C8.554 168.898 7.708 169.108 6.76 169.108ZM6.76 167.596C7.372 167.596 7.918 167.458 8.398 167.182C8.89 166.894 9.274 166.498 9.55 165.994C9.826 165.478 9.964 164.89 9.964 164.23C9.964 163.57 9.826 162.988 9.55 162.484C9.274 161.968 8.89 161.572 8.398 161.296C7.918 161.02 7.372 160.882 6.76 160.882C6.148 160.882 5.596 161.02 5.104 161.296C4.624 161.572 4.24 161.968 3.952 162.484C3.676 162.988 3.538 163.57 3.538 164.23C3.538 164.89 3.676 165.478 3.952 165.994C4.24 166.498 4.624 166.894 5.104 167.182C5.596 167.458 6.148 167.596 6.76 167.596ZM19.0653 159.784C19.9533 159.784 20.7453 159.982 21.4413 160.378C22.1373 160.774 22.6773 161.326 23.0613 162.034C23.4573 162.73 23.6553 163.528 23.6553 164.428C23.6553 165.352 23.4453 166.174 23.0253 166.894C22.6173 167.602 22.0353 168.154 21.2793 168.55C20.5353 168.946 19.6833 169.144 18.7233 169.144C17.1033 169.144 15.8493 168.592 14.9613 167.488C14.0853 166.372 13.6473 164.806 13.6473 162.79C13.6473 160.834 14.0493 159.304 14.8533 158.2C15.6573 157.084 16.8873 156.346 18.5433 155.986L22.8993 155.014L23.1513 156.598L19.1373 157.462C17.8893 157.738 16.9593 158.206 16.3473 158.866C15.7353 159.526 15.3873 160.474 15.3033 161.71C15.7113 161.098 16.2393 160.624 16.8873 160.288C17.5353 159.952 18.2613 159.784 19.0653 159.784ZM18.7593 167.704C19.3713 167.704 19.9113 167.566 20.3793 167.29C20.8593 167.014 21.2313 166.636 21.4953 166.156C21.7593 165.664 21.8913 165.106 21.8913 164.482C21.8913 163.534 21.6033 162.772 21.0273 162.196C20.4513 161.62 19.6953 161.332 18.7593 161.332C17.8233 161.332 17.0613 161.62 16.4733 162.196C15.8973 162.772 15.6093 163.534 15.6093 164.482C15.6093 165.106 15.7413 165.664 16.0053 166.156C16.2813 166.636 16.6593 167.014 17.1393 167.29C17.6193 167.566 18.1593 167.704 18.7593 167.704ZM31.1812 159.37C32.1052 159.37 32.9332 159.574 33.6652 159.982C34.3972 160.39 34.9672 160.96 35.3752 161.692C35.7952 162.424 36.0052 163.27 36.0052 164.23C36.0052 165.19 35.7952 166.042 35.3752 166.786C34.9672 167.518 34.3972 168.088 33.6652 168.496C32.9332 168.904 32.1052 169.108 31.1812 169.108C30.4972 169.108 29.8672 168.976 29.2912 168.712C28.7272 168.448 28.2472 168.064 27.8512 167.56V172.492H26.1232V159.46H27.7792V160.972C28.1632 160.444 28.6492 160.048 29.2372 159.784C29.8252 159.508 30.4732 159.37 31.1812 159.37ZM31.0372 167.596C31.6492 167.596 32.1952 167.458 32.6752 167.182C33.1672 166.894 33.5512 166.498 33.8272 165.994C34.1152 165.478 34.2592 164.89 34.2592 164.23C34.2592 163.57 34.1152 162.988 33.8272 162.484C33.5512 161.968 33.1672 161.572 32.6752 161.296C32.1952 161.02 31.6492 160.882 31.0372 160.882C30.4372 160.882 29.8912 161.026 29.3992 161.314C28.9192 161.59 28.5352 161.98 28.2472 162.484C27.9712 162.988 27.8332 163.57 27.8332 164.23C27.8332 164.89 27.9712 165.478 28.2472 165.994C28.5232 166.498 28.9072 166.894 29.3992 167.182C29.8912 167.458 30.4372 167.596 31.0372 167.596ZM41.8299 159.37C43.1499 159.37 44.1579 159.694 44.8539 160.342C45.5619 160.99 45.9159 161.956 45.9159 163.24V169H44.2779V167.74C43.9899 168.184 43.5759 168.526 43.0359 168.766C42.5079 168.994 41.8779 169.108 41.1459 169.108C40.0779 169.108 39.2199 168.85 38.5719 168.334C37.9359 167.818 37.6179 167.14 37.6179 166.3C37.6179 165.46 37.9239 164.788 38.5359 164.284C39.1479 163.768 40.1199 163.51 41.4519 163.51H44.1879V163.168C44.1879 162.424 43.9719 161.854 43.5399 161.458C43.1079 161.062 42.4719 160.864 41.6319 160.864C41.0679 160.864 40.5159 160.96 39.9759 161.152C39.4359 161.332 38.9799 161.578 38.6079 161.89L37.8879 160.594C38.3799 160.198 38.9679 159.898 39.6519 159.694C40.3359 159.478 41.0619 159.37 41.8299 159.37ZM41.4339 167.776C42.0939 167.776 42.6639 167.632 43.1439 167.344C43.6239 167.044 43.9719 166.624 44.1879 166.084V164.752H41.5239C40.0599 164.752 39.3279 165.244 39.3279 166.228C39.3279 166.708 39.5139 167.086 39.8859 167.362C40.2579 167.638 40.7739 167.776 41.4339 167.776ZM54.0353 164.032C54.6713 164.2 55.1633 164.47 55.5113 164.842C55.8593 165.214 56.0333 165.676 56.0333 166.228C56.0333 166.792 55.8413 167.296 55.4573 167.74C55.0733 168.172 54.5393 168.514 53.8553 168.766C53.1833 169.006 52.4273 169.126 51.5873 169.126C50.8793 169.126 50.1833 169.036 49.4993 168.856C48.8273 168.664 48.2273 168.394 47.6993 168.046L48.2213 166.732C48.6773 167.02 49.1993 167.248 49.7873 167.416C50.3753 167.572 50.9693 167.65 51.5693 167.65C52.3853 167.65 53.0333 167.512 53.5133 167.236C54.0053 166.948 54.2513 166.564 54.2513 166.084C54.2513 165.64 54.0533 165.298 53.6573 165.058C53.2733 164.818 52.7273 164.698 52.0193 164.698H50.2733V163.456H51.8933C52.5413 163.456 53.0513 163.342 53.4233 163.114C53.7953 162.886 53.9813 162.574 53.9813 162.178C53.9813 161.746 53.7593 161.41 53.3153 161.17C52.8833 160.93 52.2953 160.81 51.5513 160.81C50.6033 160.81 49.6013 161.056 48.5453 161.548L48.0773 160.216C49.2413 159.628 50.4593 159.334 51.7313 159.334C52.4993 159.334 53.1893 159.442 53.8013 159.658C54.4133 159.874 54.8933 160.18 55.2413 160.576C55.5893 160.972 55.7633 161.422 55.7633 161.926C55.7633 162.394 55.6073 162.814 55.2953 163.186C54.9833 163.558 54.5633 163.84 54.0353 164.032ZM62.7463 169.108C61.7983 169.108 60.9463 168.898 60.1903 168.478C59.4343 168.058 58.8403 167.482 58.4083 166.75C57.9883 166.006 57.7783 165.166 57.7783 164.23C57.7783 163.294 57.9883 162.46 58.4083 161.728C58.8403 160.984 59.4343 160.408 60.1903 160C60.9463 159.58 61.7983 159.37 62.7463 159.37C63.6943 159.37 64.5403 159.58 65.2843 160C66.0403 160.408 66.6283 160.984 67.0483 161.728C67.4803 162.46 67.6963 163.294 67.6963 164.23C67.6963 165.166 67.4803 166.006 67.0483 166.75C66.6283 167.482 66.0403 168.058 65.2843 168.478C64.5403 168.898 63.6943 169.108 62.7463 169.108ZM62.7463 167.596C63.3583 167.596 63.9043 167.458 64.3843 167.182C64.8763 166.894 65.2603 166.498 65.5363 165.994C65.8123 165.478 65.9503 164.89 65.9503 164.23C65.9503 163.57 65.8123 162.988 65.5363 162.484C65.2603 161.968 64.8763 161.572 64.3843 161.296C63.9043 161.02 63.3583 160.882 62.7463 160.882C62.1343 160.882 61.5823 161.02 61.0903 161.296C60.6103 161.572 60.2263 161.968 59.9383 162.484C59.6623 162.988 59.5243 163.57 59.5243 164.23C59.5243 164.89 59.6623 165.478 59.9383 165.994C60.2263 166.498 60.6103 166.894 61.0903 167.182C61.5823 167.458 62.1343 167.596 62.7463 167.596ZM76.6896 164.05C77.9256 164.362 78.5436 165.136 78.5436 166.372C78.5436 167.212 78.2256 167.86 77.5896 168.316C76.9656 168.772 76.0296 169 74.7816 169H70.1916V159.46H74.6196C75.7476 159.46 76.6296 159.676 77.2656 160.108C77.9016 160.528 78.2196 161.128 78.2196 161.908C78.2196 162.412 78.0816 162.85 77.8056 163.222C77.5416 163.582 77.1696 163.858 76.6896 164.05ZM71.8836 163.564H74.4756C75.1356 163.564 75.6336 163.444 75.9696 163.204C76.3176 162.964 76.4916 162.616 76.4916 162.16C76.4916 161.248 75.8196 160.792 74.4756 160.792H71.8836V163.564ZM74.6556 167.668C75.3756 167.668 75.9156 167.554 76.2756 167.326C76.6356 167.098 76.8156 166.744 76.8156 166.264C76.8156 165.772 76.6476 165.406 76.3116 165.166C75.9876 164.926 75.4716 164.806 74.7636 164.806H71.8836V167.668H74.6556ZM84.6502 159.37C85.9702 159.37 86.9782 159.694 87.6742 160.342C88.3822 160.99 88.7362 161.956 88.7362 163.24V169H87.0982V167.74C86.8102 168.184 86.3962 168.526 85.8562 168.766C85.3282 168.994 84.6982 169.108 83.9662 169.108C82.8982 169.108 82.0402 168.85 81.3922 168.334C80.7562 167.818 80.4382 167.14 80.4382 166.3C80.4382 165.46 80.7442 164.788 81.3562 164.284C81.9682 163.768 82.9402 163.51 84.2722 163.51H87.0082V163.168C87.0082 162.424 86.7922 161.854 86.3602 161.458C85.9282 161.062 85.2922 160.864 84.4522 160.864C83.8882 160.864 83.3362 160.96 82.7962 161.152C82.2562 161.332 81.8002 161.578 81.4282 161.89L80.7082 160.594C81.2002 160.198 81.7882 159.898 82.4722 159.694C83.1562 159.478 83.8822 159.37 84.6502 159.37ZM84.2542 167.776C84.9142 167.776 85.4842 167.632 85.9642 167.344C86.4442 167.044 86.7922 166.624 87.0082 166.084V164.752H84.3442C82.8802 164.752 82.1482 165.244 82.1482 166.228C82.1482 166.708 82.3342 167.086 82.7062 167.362C83.0782 167.638 83.5942 167.776 84.2542 167.776ZM91.8478 159.46H93.5758V163.51H99.0118V159.46H100.74V169H99.0118V165.004H93.5758V169H91.8478V159.46ZM104.1 159.46H105.828V166.408L111.678 159.46H113.244V169H111.516V162.052L105.684 169H104.1V159.46ZM124.248 159.46V169H122.7V165.976H119.928H119.73L117.642 169H115.788L118.11 165.742C117.39 165.526 116.838 165.172 116.454 164.68C116.07 164.176 115.878 163.552 115.878 162.808C115.878 161.716 116.25 160.888 116.994 160.324C117.738 159.748 118.764 159.46 120.072 159.46H124.248ZM117.642 162.862C117.642 163.498 117.84 163.972 118.236 164.284C118.644 164.584 119.25 164.734 120.054 164.734H122.7V160.972H120.126C118.47 160.972 117.642 161.602 117.642 162.862ZM137.287 159.46H139.015V166.408L144.865 159.46H146.431V169H144.703V162.052L138.871 169H137.287V159.46ZM159.785 164.032C160.421 164.2 160.913 164.47 161.261 164.842C161.609 165.214 161.783 165.676 161.783 166.228C161.783 166.792 161.591 167.296 161.207 167.74C160.823 168.172 160.289 168.514 159.605 168.766C158.933 169.006 158.177 169.126 157.337 169.126C156.629 169.126 155.933 169.036 155.249 168.856C154.577 168.664 153.977 168.394 153.449 168.046L153.971 166.732C154.427 167.02 154.949 167.248 155.537 167.416C156.125 167.572 156.719 167.65 157.319 167.65C158.135 167.65 158.783 167.512 159.263 167.236C159.755 166.948 160.001 166.564 160.001 166.084C160.001 165.64 159.803 165.298 159.407 165.058C159.023 164.818 158.477 164.698 157.769 164.698H156.023V163.456H157.643C158.291 163.456 158.801 163.342 159.173 163.114C159.545 162.886 159.731 162.574 159.731 162.178C159.731 161.746 159.509 161.41 159.065 161.17C158.633 160.93 158.045 160.81 157.301 160.81C156.353 160.81 155.351 161.056 154.295 161.548L153.827 160.216C154.991 159.628 156.209 159.334 157.481 159.334C158.249 159.334 158.939 159.442 159.551 159.658C160.163 159.874 160.643 160.18 160.991 160.576C161.339 160.972 161.513 161.422 161.513 161.926C161.513 162.394 161.357 162.814 161.045 163.186C160.733 163.558 160.313 163.84 159.785 164.032ZM174.112 167.488V171.214H172.492V169H164.518V171.214H162.88V167.488H163.384C163.996 167.452 164.416 167.02 164.644 166.192C164.872 165.364 165.028 164.194 165.112 162.682L165.256 159.46H172.654V167.488H174.112ZM166.696 162.808C166.648 164.008 166.546 165.004 166.39 165.796C166.246 166.576 165.976 167.14 165.58 167.488H170.926V160.972H166.786L166.696 162.808ZM181.421 159.37C182.345 159.37 183.173 159.574 183.905 159.982C184.637 160.39 185.207 160.96 185.615 161.692C186.035 162.424 186.245 163.27 186.245 164.23C186.245 165.19 186.035 166.042 185.615 166.786C185.207 167.518 184.637 168.088 183.905 168.496C183.173 168.904 182.345 169.108 181.421 169.108C180.737 169.108 180.107 168.976 179.531 168.712C178.967 168.448 178.487 168.064 178.091 167.56V172.492H176.363V159.46H178.019V160.972C178.403 160.444 178.889 160.048 179.477 159.784C180.065 159.508 180.713 159.37 181.421 159.37ZM181.277 167.596C181.889 167.596 182.435 167.458 182.915 167.182C183.407 166.894 183.791 166.498 184.067 165.994C184.355 165.478 184.499 164.89 184.499 164.23C184.499 163.57 184.355 162.988 184.067 162.484C183.791 161.968 183.407 161.572 182.915 161.296C182.435 161.02 181.889 160.882 181.277 160.882C180.677 160.882 180.131 161.026 179.639 161.314C179.159 161.59 178.775 161.98 178.487 162.484C178.211 162.988 178.073 163.57 178.073 164.23C178.073 164.89 178.211 165.478 178.487 165.994C178.763 166.498 179.147 166.894 179.639 167.182C180.131 167.458 180.677 167.596 181.277 167.596ZM192.07 159.37C193.39 159.37 194.398 159.694 195.094 160.342C195.802 160.99 196.156 161.956 196.156 163.24V169H194.518V167.74C194.23 168.184 193.816 168.526 193.276 168.766C192.748 168.994 192.118 169.108 191.386 169.108C190.318 169.108 189.46 168.85 188.812 168.334C188.176 167.818 187.858 167.14 187.858 166.3C187.858 165.46 188.164 164.788 188.776 164.284C189.388 163.768 190.36 163.51 191.692 163.51H194.428V163.168C194.428 162.424 194.212 161.854 193.78 161.458C193.348 161.062 192.712 160.864 191.872 160.864C191.308 160.864 190.756 160.96 190.216 161.152C189.676 161.332 189.22 161.578 188.848 161.89L188.128 160.594C188.62 160.198 189.208 159.898 189.892 159.694C190.576 159.478 191.302 159.37 192.07 159.37ZM191.674 167.776C192.334 167.776 192.904 167.632 193.384 167.344C193.864 167.044 194.212 166.624 194.428 166.084V164.752H191.764C190.3 164.752 189.568 165.244 189.568 166.228C189.568 166.708 189.754 167.086 190.126 167.362C190.498 167.638 191.014 167.776 191.674 167.776ZM205.766 164.05C207.002 164.362 207.62 165.136 207.62 166.372C207.62 167.212 207.302 167.86 206.666 168.316C206.042 168.772 205.106 169 203.858 169H199.268V159.46H203.696C204.824 159.46 205.706 159.676 206.342 160.108C206.978 160.528 207.296 161.128 207.296 161.908C207.296 162.412 207.158 162.85 206.882 163.222C206.618 163.582 206.246 163.858 205.766 164.05ZM200.96 163.564H203.552C204.212 163.564 204.71 163.444 205.046 163.204C205.394 162.964 205.568 162.616 205.568 162.16C205.568 161.248 204.896 160.792 203.552 160.792H200.96V163.564ZM203.732 167.668C204.452 167.668 204.992 167.554 205.352 167.326C205.712 167.098 205.892 166.744 205.892 166.264C205.892 165.772 205.724 165.406 205.388 165.166C205.064 164.926 204.548 164.806 203.84 164.806H200.96V167.668H203.732ZM214.41 169.108C213.462 169.108 212.61 168.898 211.854 168.478C211.098 168.058 210.504 167.482 210.072 166.75C209.652 166.006 209.442 165.166 209.442 164.23C209.442 163.294 209.652 162.46 210.072 161.728C210.504 160.984 211.098 160.408 211.854 160C212.61 159.58 213.462 159.37 214.41 159.37C215.358 159.37 216.204 159.58 216.948 160C217.704 160.408 218.292 160.984 218.712 161.728C219.144 162.46 219.36 163.294 219.36 164.23C219.36 165.166 219.144 166.006 218.712 166.75C218.292 167.482 217.704 168.058 216.948 168.478C216.204 168.898 215.358 169.108 214.41 169.108ZM214.41 167.596C215.022 167.596 215.568 167.458 216.048 167.182C216.54 166.894 216.924 166.498 217.2 165.994C217.476 165.478 217.614 164.89 217.614 164.23C217.614 163.57 217.476 162.988 217.2 162.484C216.924 161.968 216.54 161.572 216.048 161.296C215.568 161.02 215.022 160.882 214.41 160.882C213.798 160.882 213.246 161.02 212.754 161.296C212.274 161.572 211.89 161.968 211.602 162.484C211.326 162.988 211.188 163.57 211.188 164.23C211.188 164.89 211.326 165.478 211.602 165.994C211.89 166.498 212.274 166.894 212.754 167.182C213.246 167.458 213.798 167.596 214.41 167.596ZM225.942 169.108C224.994 169.108 224.142 168.898 223.386 168.478C222.63 168.058 222.036 167.482 221.604 166.75C221.184 166.006 220.974 165.166 220.974 164.23C220.974 163.294 221.184 162.46 221.604 161.728C222.036 160.984 222.63 160.408 223.386 160C224.142 159.58 224.994 159.37 225.942 159.37C226.89 159.37 227.736 159.58 228.48 160C229.236 160.408 229.824 160.984 230.244 161.728C230.676 162.46 230.892 163.294 230.892 164.23C230.892 165.166 230.676 166.006 230.244 166.75C229.824 167.482 229.236 168.058 228.48 168.478C227.736 168.898 226.89 169.108 225.942 169.108ZM225.942 167.596C226.554 167.596 227.1 167.458 227.58 167.182C228.072 166.894 228.456 166.498 228.732 165.994C229.008 165.478 229.146 164.89 229.146 164.23C229.146 163.57 229.008 162.988 228.732 162.484C228.456 161.968 228.072 161.572 227.58 161.296C227.1 161.02 226.554 160.882 225.942 160.882C225.33 160.882 224.778 161.02 224.286 161.296C223.806 161.572 223.422 161.968 223.134 162.484C222.858 162.988 222.72 163.57 222.72 164.23C222.72 164.89 222.858 165.478 223.134 165.994C223.422 166.498 223.806 166.894 224.286 167.182C224.778 167.458 225.33 167.596 225.942 167.596ZM239.028 169L236.274 165.346L233.484 169H231.558L235.32 164.122L231.738 159.46H233.664L236.292 162.898L238.902 159.46H240.792L237.192 164.122L240.99 169H239.028ZM247.867 159.37C248.791 159.37 249.619 159.574 250.351 159.982C251.083 160.39 251.653 160.96 252.061 161.692C252.481 162.424 252.691 163.27 252.691 164.23C252.691 165.19 252.481 166.042 252.061 166.786C251.653 167.518 251.083 168.088 250.351 168.496C249.619 168.904 248.791 169.108 247.867 169.108C247.183 169.108 246.553 168.976 245.977 168.712C245.413 168.448 244.933 168.064 244.537 167.56V172.492H242.809V159.46H244.465V160.972C244.849 160.444 245.335 160.048 245.923 159.784C246.511 159.508 247.159 159.37 247.867 159.37ZM247.723 167.596C248.335 167.596 248.881 167.458 249.361 167.182C249.853 166.894 250.237 166.498 250.513 165.994C250.801 165.478 250.945 164.89 250.945 164.23C250.945 163.57 250.801 162.988 250.513 162.484C250.237 161.968 249.853 161.572 249.361 161.296C248.881 161.02 248.335 160.882 247.723 160.882C247.123 160.882 246.577 161.026 246.085 161.314C245.605 161.59 245.221 161.98 244.933 162.484C244.657 162.988 244.519 163.57 244.519 164.23C244.519 164.89 244.657 165.478 244.933 165.994C245.209 166.498 245.593 166.894 246.085 167.182C246.577 167.458 247.123 167.596 247.723 167.596ZM258.515 159.37C259.835 159.37 260.843 159.694 261.539 160.342C262.247 160.99 262.601 161.956 262.601 163.24V169H260.963V167.74C260.675 168.184 260.261 168.526 259.721 168.766C259.193 168.994 258.563 169.108 257.831 169.108C256.763 169.108 255.905 168.85 255.257 168.334C254.621 167.818 254.303 167.14 254.303 166.3C254.303 165.46 254.609 164.788 255.221 164.284C255.833 163.768 256.805 163.51 258.137 163.51H260.873V163.168C260.873 162.424 260.657 161.854 260.225 161.458C259.793 161.062 259.157 160.864 258.317 160.864C257.753 160.864 257.201 160.96 256.661 161.152C256.121 161.332 255.665 161.578 255.293 161.89L254.573 160.594C255.065 160.198 255.653 159.898 256.337 159.694C257.021 159.478 257.747 159.37 258.515 159.37ZM258.119 167.776C258.779 167.776 259.349 167.632 259.829 167.344C260.309 167.044 260.657 166.624 260.873 166.084V164.752H258.209C256.745 164.752 256.013 165.244 256.013 166.228C256.013 166.708 256.199 167.086 256.571 167.362C256.943 167.638 257.459 167.776 258.119 167.776ZM265.713 159.46H267.441V163.51H272.877V159.46H274.605V169H272.877V165.004H267.441V169H265.713V159.46ZM286.587 164.284C286.587 164.416 286.575 164.59 286.551 164.806H278.811C278.919 165.646 279.285 166.324 279.909 166.84C280.545 167.344 281.331 167.596 282.267 167.596C283.407 167.596 284.325 167.212 285.021 166.444L285.975 167.56C285.543 168.064 285.003 168.448 284.355 168.712C283.719 168.976 283.005 169.108 282.213 169.108C281.205 169.108 280.311 168.904 279.531 168.496C278.751 168.076 278.145 167.494 277.713 166.75C277.293 166.006 277.083 165.166 277.083 164.23C277.083 163.306 277.287 162.472 277.695 161.728C278.115 160.984 278.685 160.408 279.405 160C280.137 159.58 280.959 159.37 281.871 159.37C282.783 159.37 283.593 159.58 284.301 160C285.021 160.408 285.579 160.984 285.975 161.728C286.383 162.472 286.587 163.324 286.587 164.284ZM281.871 160.828C281.043 160.828 280.347 161.08 279.783 161.584C279.231 162.088 278.907 162.748 278.811 163.564H284.931C284.835 162.76 284.505 162.106 283.941 161.602C283.389 161.086 282.699 160.828 281.871 160.828ZM289.268 159.46H290.996V163.51H296.432V159.46H298.16V169H296.432V165.004H290.996V169H289.268V159.46ZM301.52 159.46H303.248V166.408L309.098 159.46H310.664V169H308.936V162.052L303.104 169H301.52V159.46ZM321.668 159.46V169H320.12V165.976H317.348H317.15L315.062 169H313.208L315.53 165.742C314.81 165.526 314.258 165.172 313.874 164.68C313.49 164.176 313.298 163.552 313.298 162.808C313.298 161.716 313.67 160.888 314.414 160.324C315.158 159.748 316.184 159.46 317.492 159.46H321.668ZM315.062 162.862C315.062 163.498 315.26 163.972 315.656 164.284C316.064 164.584 316.67 164.734 317.474 164.734H320.12V160.972H317.546C315.89 160.972 315.062 161.602 315.062 162.862Z" fill="#3B4252"/>
<path opacity="0.5" d="M3 217H405" stroke="#3B4252" stroke-width="2" stroke-miterlimit="1.30541" stroke-linecap="round" stroke-dasharray="0.1 4"/>
<path opacity="0.7" d="M11.62 199.966H7.3V211H5.536V199.966H1.234V198.4H11.62V199.966ZM18.3492 201.37C19.2732 201.37 20.1012 201.574 20.8332 201.982C21.5652 202.39 22.1352 202.96 22.5432 203.692C22.9632 204.424 23.1732 205.27 23.1732 206.23C23.1732 207.19 22.9632 208.042 22.5432 208.786C22.1352 209.518 21.5652 210.088 20.8332 210.496C20.1012 210.904 19.2732 211.108 18.3492 211.108C17.6652 211.108 17.0352 210.976 16.4592 210.712C15.8952 210.448 15.4152 210.064 15.0192 209.56V214.492H13.2912V201.46H14.9472V202.972C15.3312 202.444 15.8172 202.048 16.4052 201.784C16.9932 201.508 17.6412 201.37 18.3492 201.37ZM18.2052 209.596C18.8172 209.596 19.3632 209.458 19.8432 209.182C20.3352 208.894 20.7192 208.498 20.9952 207.994C21.2832 207.478 21.4272 206.89 21.4272 206.23C21.4272 205.57 21.2832 204.988 20.9952 204.484C20.7192 203.968 20.3352 203.572 19.8432 203.296C19.3632 203.02 18.8172 202.882 18.2052 202.882C17.6052 202.882 17.0592 203.026 16.5672 203.314C16.0872 203.59 15.7032 203.98 15.4152 204.484C15.1392 204.988 15.0012 205.57 15.0012 206.23C15.0012 206.89 15.1392 207.478 15.4152 207.994C15.6912 208.498 16.0752 208.894 16.5672 209.182C17.0592 209.458 17.6052 209.596 18.2052 209.596ZM28.9979 201.37C30.3179 201.37 31.3259 201.694 32.0219 202.342C32.7299 202.99 33.0839 203.956 33.0839 205.24V211H31.4459V209.74C31.1579 210.184 30.7439 210.526 30.2039 210.766C29.6759 210.994 29.0459 211.108 28.3139 211.108C27.2459 211.108 26.3879 210.85 25.7399 210.334C25.1039 209.818 24.7859 209.14 24.7859 208.3C24.7859 207.46 25.0919 206.788 25.7039 206.284C26.3159 205.768 27.2879 205.51 28.6199 205.51H31.3559V205.168C31.3559 204.424 31.1399 203.854 30.7079 203.458C30.2759 203.062 29.6399 202.864 28.7999 202.864C28.2359 202.864 27.6839 202.96 27.1439 203.152C26.6039 203.332 26.1479 203.578 25.7759 203.89L25.0559 202.594C25.5479 202.198 26.1359 201.898 26.8199 201.694C27.5039 201.478 28.2299 201.37 28.9979 201.37ZM28.6019 209.776C29.2619 209.776 29.8319 209.632 30.3119 209.344C30.7919 209.044 31.1399 208.624 31.3559 208.084V206.752H28.6919C27.2279 206.752 26.4959 207.244 26.4959 208.228C26.4959 208.708 26.6819 209.086 27.0539 209.362C27.4259 209.638 27.9419 209.776 28.6019 209.776ZM36.1955 201.46H37.9235V205.51H43.3595V201.46H45.0875V211H43.3595V207.004H37.9235V211H36.1955V201.46ZM52.6054 211.108C51.6334 211.108 50.7634 210.898 49.9954 210.478C49.2394 210.058 48.6454 209.482 48.2134 208.75C47.7814 208.006 47.5654 207.166 47.5654 206.23C47.5654 205.294 47.7814 204.46 48.2134 203.728C48.6454 202.984 49.2394 202.408 49.9954 202C50.7634 201.58 51.6334 201.37 52.6054 201.37C53.4694 201.37 54.2374 201.544 54.9094 201.892C55.5934 202.24 56.1214 202.744 56.4934 203.404L55.1794 204.25C54.8794 203.794 54.5074 203.452 54.0634 203.224C53.6194 202.996 53.1274 202.882 52.5874 202.882C51.9634 202.882 51.3994 203.02 50.8954 203.296C50.4034 203.572 50.0134 203.968 49.7254 204.484C49.4494 204.988 49.3114 205.57 49.3114 206.23C49.3114 206.902 49.4494 207.496 49.7254 208.012C50.0134 208.516 50.4034 208.906 50.8954 209.182C51.3994 209.458 51.9634 209.596 52.5874 209.596C53.1274 209.596 53.6194 209.482 54.0634 209.254C54.5074 209.026 54.8794 208.684 55.1794 208.228L56.4934 209.056C56.1214 209.716 55.5934 210.226 54.9094 210.586C54.2374 210.934 53.4694 211.108 52.6054 211.108ZM67.5686 201.46V211H65.8406V202.972H60.4586V211H58.7306V201.46H67.5686ZM74.9983 211.108C74.0503 211.108 73.1983 210.898 72.4423 210.478C71.6863 210.058 71.0923 209.482 70.6603 208.75C70.2403 208.006 70.0303 207.166 70.0303 206.23C70.0303 205.294 70.2403 204.46 70.6603 203.728C71.0923 202.984 71.6863 202.408 72.4423 202C73.1983 201.58 74.0503 201.37 74.9983 201.37C75.9463 201.37 76.7923 201.58 77.5363 202C78.2923 202.408 78.8803 202.984 79.3003 203.728C79.7323 204.46 79.9483 205.294 79.9483 206.23C79.9483 207.166 79.7323 208.006 79.3003 208.75C78.8803 209.482 78.2923 210.058 77.5363 210.478C76.7923 210.898 75.9463 211.108 74.9983 211.108ZM74.9983 209.596C75.6103 209.596 76.1563 209.458 76.6363 209.182C77.1283 208.894 77.5123 208.498 77.7883 207.994C78.0643 207.478 78.2023 206.89 78.2023 206.23C78.2023 205.57 78.0643 204.988 77.7883 204.484C77.5123 203.968 77.1283 203.572 76.6363 203.296C76.1563 203.02 75.6103 202.882 74.9983 202.882C74.3863 202.882 73.8343 203.02 73.3423 203.296C72.8623 203.572 72.4783 203.968 72.1903 204.484C71.9143 204.988 71.7763 205.57 71.7763 206.23C71.7763 206.89 71.9143 207.478 72.1903 207.994C72.4783 208.498 72.8623 208.894 73.3423 209.182C73.8343 209.458 74.3863 209.596 74.9983 209.596ZM87.5015 201.37C88.4255 201.37 89.2535 201.574 89.9855 201.982C90.7175 202.39 91.2875 202.96 91.6955 203.692C92.1155 204.424 92.3255 205.27 92.3255 206.23C92.3255 207.19 92.1155 208.042 91.6955 208.786C91.2875 209.518 90.7175 210.088 89.9855 210.496C89.2535 210.904 88.4255 211.108 87.5015 211.108C86.8175 211.108 86.1875 210.976 85.6115 210.712C85.0475 210.448 84.5675 210.064 84.1715 209.56V214.492H82.4435V201.46H84.0995V202.972C84.4835 202.444 84.9695 202.048 85.5575 201.784C86.1455 201.508 86.7935 201.37 87.5015 201.37ZM87.3575 209.596C87.9695 209.596 88.5155 209.458 88.9955 209.182C89.4875 208.894 89.8715 208.498 90.1475 207.994C90.4355 207.478 90.5795 206.89 90.5795 206.23C90.5795 205.57 90.4355 204.988 90.1475 204.484C89.8715 203.968 89.4875 203.572 88.9955 203.296C88.5155 203.02 87.9695 202.882 87.3575 202.882C86.7575 202.882 86.2115 203.026 85.7195 203.314C85.2395 203.59 84.8555 203.98 84.5675 204.484C84.2915 204.988 84.1535 205.57 84.1535 206.23C84.1535 206.89 84.2915 207.478 84.5675 207.994C84.8435 208.498 85.2275 208.894 85.7195 209.182C86.2115 209.458 86.7575 209.596 87.3575 209.596ZM101.595 202.972H98.1025V211H96.3745V202.972H92.8825V201.46H101.595V202.972ZM103.362 201.46H105.09V205.51H110.526V201.46H112.254V211H110.526V207.004H105.09V211H103.362V201.46ZM119.915 204.7C121.115 204.712 122.033 204.988 122.669 205.528C123.305 206.068 123.623 206.83 123.623 207.814C123.623 208.846 123.275 209.644 122.579 210.208C121.895 210.76 120.911 211.03 119.627 211.018L115.613 211V201.46H117.341V204.682L119.915 204.7ZM125.045 201.46H126.773V211H125.045V201.46ZM119.501 209.704C120.281 209.716 120.869 209.56 121.265 209.236C121.673 208.912 121.877 208.432 121.877 207.796C121.877 207.172 121.679 206.716 121.283 206.428C120.887 206.14 120.293 205.99 119.501 205.978L117.341 205.942V209.686L119.501 209.704ZM138.755 206.284C138.755 206.416 138.743 206.59 138.719 206.806H130.979C131.087 207.646 131.453 208.324 132.077 208.84C132.713 209.344 133.499 209.596 134.435 209.596C135.575 209.596 136.493 209.212 137.189 208.444L138.143 209.56C137.711 210.064 137.171 210.448 136.523 210.712C135.887 210.976 135.173 211.108 134.381 211.108C133.373 211.108 132.479 210.904 131.699 210.496C130.919 210.076 130.313 209.494 129.881 208.75C129.461 208.006 129.251 207.166 129.251 206.23C129.251 205.306 129.455 204.472 129.863 203.728C130.283 202.984 130.853 202.408 131.573 202C132.305 201.58 133.127 201.37 134.039 201.37C134.951 201.37 135.761 201.58 136.469 202C137.189 202.408 137.747 202.984 138.143 203.728C138.551 204.472 138.755 205.324 138.755 206.284ZM134.039 202.828C133.211 202.828 132.515 203.08 131.951 203.584C131.399 204.088 131.075 204.748 130.979 205.564H137.099C137.003 204.76 136.673 204.106 136.109 203.602C135.557 203.086 134.867 202.828 134.039 202.828ZM146.27 201.46H147.998V208.408L153.848 201.46H155.414V211H153.686V204.052L147.854 211H146.27V201.46ZM171.792 201.46V211H170.064V202.972H165.96L165.852 205.096C165.792 206.38 165.678 207.454 165.51 208.318C165.342 209.17 165.066 209.854 164.682 210.37C164.298 210.886 163.764 211.144 163.08 211.144C162.768 211.144 162.414 211.09 162.018 210.982L162.126 209.524C162.282 209.56 162.426 209.578 162.558 209.578C163.038 209.578 163.398 209.368 163.638 208.948C163.878 208.528 164.034 208.03 164.106 207.454C164.178 206.878 164.244 206.056 164.304 204.988L164.466 201.46H171.792ZM179.219 211.108C178.271 211.108 177.419 210.898 176.663 210.478C175.907 210.058 175.313 209.482 174.881 208.75C174.461 208.006 174.251 207.166 174.251 206.23C174.251 205.294 174.461 204.46 174.881 203.728C175.313 202.984 175.907 202.408 176.663 202C177.419 201.58 178.271 201.37 179.219 201.37C180.167 201.37 181.013 201.58 181.757 202C182.513 202.408 183.101 202.984 183.521 203.728C183.953 204.46 184.169 205.294 184.169 206.23C184.169 207.166 183.953 208.006 183.521 208.75C183.101 209.482 182.513 210.058 181.757 210.478C181.013 210.898 180.167 211.108 179.219 211.108ZM179.219 209.596C179.831 209.596 180.377 209.458 180.857 209.182C181.349 208.894 181.733 208.498 182.009 207.994C182.285 207.478 182.423 206.89 182.423 206.23C182.423 205.57 182.285 204.988 182.009 204.484C181.733 203.968 181.349 203.572 180.857 203.296C180.377 203.02 179.831 202.882 179.219 202.882C178.607 202.882 178.055 203.02 177.563 203.296C177.083 203.572 176.699 203.968 176.411 204.484C176.135 204.988 175.997 205.57 175.997 206.23C175.997 206.89 176.135 207.478 176.411 207.994C176.699 208.498 177.083 208.894 177.563 209.182C178.055 209.458 178.607 209.596 179.219 209.596ZM193.684 202.972H188.392V211H186.664V201.46H193.684V202.972ZM195.453 201.46H197.181V208.408L203.031 201.46H204.597V211H202.869V204.052L197.037 211H195.453V201.46ZM212.109 211.108C211.137 211.108 210.267 210.898 209.499 210.478C208.743 210.058 208.149 209.482 207.717 208.75C207.285 208.006 207.069 207.166 207.069 206.23C207.069 205.294 207.285 204.46 207.717 203.728C208.149 202.984 208.743 202.408 209.499 202C210.267 201.58 211.137 201.37 212.109 201.37C212.973 201.37 213.741 201.544 214.413 201.892C215.097 202.24 215.625 202.744 215.997 203.404L214.683 204.25C214.383 203.794 214.011 203.452 213.567 203.224C213.123 202.996 212.631 202.882 212.091 202.882C211.467 202.882 210.903 203.02 210.399 203.296C209.907 203.572 209.517 203.968 209.229 204.484C208.953 204.988 208.815 205.57 208.815 206.23C208.815 206.902 208.953 207.496 209.229 208.012C209.517 208.516 209.907 208.906 210.399 209.182C210.903 209.458 211.467 209.596 212.091 209.596C212.631 209.596 213.123 209.482 213.567 209.254C214.011 209.026 214.383 208.684 214.683 208.228L215.997 209.056C215.625 209.716 215.097 210.226 214.413 210.586C213.741 210.934 212.973 211.108 212.109 211.108ZM225.222 202.972H221.729V211H220.002V202.972H216.51V201.46H225.222V202.972ZM226.988 201.46H228.716V208.408L234.566 201.46H236.132V211H234.404V204.052L228.572 211H226.988V201.46ZM247.101 201.46V211H245.373V207.148C244.341 207.628 243.315 207.868 242.295 207.868C241.107 207.868 240.189 207.592 239.541 207.04C238.893 206.488 238.569 205.66 238.569 204.556V201.46H240.297V204.448C240.297 205.108 240.501 205.606 240.909 205.942C241.329 206.278 241.911 206.446 242.655 206.446C243.495 206.446 244.401 206.236 245.373 205.816V201.46H247.101ZM259.077 206.284C259.077 206.416 259.065 206.59 259.041 206.806H251.301C251.409 207.646 251.775 208.324 252.399 208.84C253.035 209.344 253.821 209.596 254.757 209.596C255.897 209.596 256.815 209.212 257.511 208.444L258.465 209.56C258.033 210.064 257.493 210.448 256.845 210.712C256.209 210.976 255.495 211.108 254.703 211.108C253.695 211.108 252.801 210.904 252.021 210.496C251.241 210.076 250.635 209.494 250.203 208.75C249.783 208.006 249.573 207.166 249.573 206.23C249.573 205.306 249.777 204.472 250.185 203.728C250.605 202.984 251.175 202.408 251.895 202C252.627 201.58 253.449 201.37 254.361 201.37C255.273 201.37 256.083 201.58 256.791 202C257.511 202.408 258.069 202.984 258.465 203.728C258.873 204.472 259.077 205.324 259.077 206.284ZM254.361 202.828C253.533 202.828 252.837 203.08 252.273 203.584C251.721 204.088 251.397 204.748 251.301 205.564H257.421C257.325 204.76 256.995 204.106 256.431 203.602C255.879 203.086 255.189 202.828 254.361 202.828ZM265.916 211.108C264.944 211.108 264.074 210.898 263.306 210.478C262.55 210.058 261.956 209.482 261.524 208.75C261.092 208.006 260.876 207.166 260.876 206.23C260.876 205.294 261.092 204.46 261.524 203.728C261.956 202.984 262.55 202.408 263.306 202C264.074 201.58 264.944 201.37 265.916 201.37C266.78 201.37 267.548 201.544 268.22 201.892C268.904 202.24 269.432 202.744 269.804 203.404L268.49 204.25C268.19 203.794 267.818 203.452 267.374 203.224C266.93 202.996 266.438 202.882 265.898 202.882C265.274 202.882 264.71 203.02 264.206 203.296C263.714 203.572 263.324 203.968 263.036 204.484C262.76 204.988 262.622 205.57 262.622 206.23C262.622 206.902 262.76 207.496 263.036 208.012C263.324 208.516 263.714 208.906 264.206 209.182C264.71 209.458 265.274 209.596 265.898 209.596C266.438 209.596 266.93 209.482 267.374 209.254C267.818 209.026 268.19 208.684 268.49 208.228L269.804 209.056C269.432 209.716 268.904 210.226 268.22 210.586C267.548 210.934 266.78 211.108 265.916 211.108ZM275.749 206.968H273.769V211H272.041V201.46H273.769V205.492H275.785L278.881 201.46H280.735L277.117 206.05L280.987 211H278.953L275.749 206.968ZM282.799 201.46H284.527V208.408L290.377 201.46H291.943V211H290.215V204.052L284.383 211H282.799V201.46ZM303.919 206.284C303.919 206.416 303.907 206.59 303.883 206.806H296.143C296.251 207.646 296.617 208.324 297.241 208.84C297.877 209.344 298.663 209.596 299.599 209.596C300.739 209.596 301.657 209.212 302.353 208.444L303.307 209.56C302.875 210.064 302.335 210.448 301.687 210.712C301.051 210.976 300.337 211.108 299.545 211.108C298.537 211.108 297.643 210.904 296.863 210.496C296.083 210.076 295.477 209.494 295.045 208.75C294.625 208.006 294.415 207.166 294.415 206.23C294.415 205.306 294.619 204.472 295.027 203.728C295.447 202.984 296.017 202.408 296.737 202C297.469 201.58 298.291 201.37 299.203 201.37C300.115 201.37 300.925 201.58 301.633 202C302.353 202.408 302.911 202.984 303.307 203.728C303.715 204.472 303.919 205.324 303.919 206.284ZM299.203 202.828C298.375 202.828 297.679 203.08 297.115 203.584C296.563 204.088 296.239 204.748 296.143 205.564H302.263C302.167 204.76 301.837 204.106 301.273 203.602C300.721 203.086 300.031 202.828 299.203 202.828ZM315.142 206.968H313.162V211H311.434V201.46H313.162V205.492H315.178L318.274 201.46H320.128L316.51 206.05L320.38 211H318.346L315.142 206.968ZM325.961 211.108C325.013 211.108 324.161 210.898 323.405 210.478C322.649 210.058 322.055 209.482 321.623 208.75C321.203 208.006 320.993 207.166 320.993 206.23C320.993 205.294 321.203 204.46 321.623 203.728C322.055 202.984 322.649 202.408 323.405 202C324.161 201.58 325.013 201.37 325.961 201.37C326.909 201.37 327.755 201.58 328.499 202C329.255 202.408 329.843 202.984 330.263 203.728C330.695 204.46 330.911 205.294 330.911 206.23C330.911 207.166 330.695 208.006 330.263 208.75C329.843 209.482 329.255 210.058 328.499 210.478C327.755 210.898 326.909 211.108 325.961 211.108ZM325.961 209.596C326.573 209.596 327.119 209.458 327.599 209.182C328.091 208.894 328.475 208.498 328.751 207.994C329.027 207.478 329.165 206.89 329.165 206.23C329.165 205.57 329.027 204.988 328.751 204.484C328.475 203.968 328.091 203.572 327.599 203.296C327.119 203.02 326.573 202.882 325.961 202.882C325.349 202.882 324.797 203.02 324.305 203.296C323.825 203.572 323.441 203.968 323.153 204.484C322.877 204.988 322.739 205.57 322.739 206.23C322.739 206.89 322.877 207.478 323.153 207.994C323.441 208.498 323.825 208.894 324.305 209.182C324.797 209.458 325.349 209.596 325.961 209.596ZM344.404 201.46V211H342.838V204.034L339.274 209.92H338.518L334.99 204.016V211H333.406V201.46H335.188L338.932 207.904L342.784 201.46H344.404ZM356.606 201.46V211H354.878V202.972H349.496V211H347.768V201.46H356.606ZM363.351 201.37C364.671 201.37 365.679 201.694 366.375 202.342C367.083 202.99 367.437 203.956 367.437 205.24V211H365.799V209.74C365.511 210.184 365.097 210.526 364.557 210.766C364.029 210.994 363.399 211.108 362.667 211.108C361.599 211.108 360.741 210.85 360.093 210.334C359.457 209.818 359.139 209.14 359.139 208.3C359.139 207.46 359.445 206.788 360.057 206.284C360.669 205.768 361.641 205.51 362.973 205.51H365.709V205.168C365.709 204.424 365.493 203.854 365.061 203.458C364.629 203.062 363.993 202.864 363.153 202.864C362.589 202.864 362.037 202.96 361.497 203.152C360.957 203.332 360.501 203.578 360.129 203.89L359.409 202.594C359.901 202.198 360.489 201.898 361.173 201.694C361.857 201.478 362.583 201.37 363.351 201.37ZM362.955 209.776C363.615 209.776 364.185 209.632 364.665 209.344C365.145 209.044 365.493 208.624 365.709 208.084V206.752H363.045C361.581 206.752 360.849 207.244 360.849 208.228C360.849 208.708 361.035 209.086 361.407 209.362C361.779 209.638 362.295 209.776 362.955 209.776ZM370.549 201.46H372.277V205.51H377.713V201.46H379.441V211H377.713V207.004H372.277V211H370.549V201.46ZM382.801 201.46H384.529V208.408L390.379 201.46H391.945V211H390.217V204.052L384.385 211H382.801V201.46ZM395.299 201.46H397.027V208.408L402.877 201.46H404.443V211H402.715V204.052L396.883 211H395.299V201.46Z" fill="#3B4252"/>
</svg>
